<svg xmlns="http://www.w3.org/2000/svg" xmlns:xlink="http://www.w3.org/1999/xlink" width="500" zoomAndPan="magnify" viewBox="0 0 375 374.999991" height="500" preserveAspectRatio="xMidYMid meet" version="1.0"><defs><clipPath id="id1"><path d="M 124 73.839844 L 281 73.839844 L 281 250 L 124 250 Z M 124 73.839844 " clip-rule="nonzero"/></clipPath><clipPath id="id2"><path d="M 92.453125 99 L 268 99 L 268 301.089844 L 92.453125 301.089844 Z M 92.453125 99 " clip-rule="nonzero"/></clipPath></defs><path fill="#ffffff" d="M 351.675781 58.050781 L 351.675781 316.949219 C 351.675781 336.148438 336.148438 351.675781 316.949219 351.675781 L 58.050781 351.675781 C 38.851562 351.675781 23.324219 336.148438 23.324219 316.949219 L 23.324219 58.050781 C 23.324219 38.851562 38.851562 23.324219 58.050781 23.324219 L 316.949219 23.324219 C 336.148438 23.324219 351.675781 38.851562 351.675781 58.050781 " fill-opacity="1" fill-rule="nonzero"/><path fill="#c2912b" d="M 53.476562 312.523438 C 48.503906 312.523438 44.476562 316.554688 44.476562 321.523438 C 44.476562 326.496094 48.503906 330.523438 53.476562 330.523438 C 58.445312 330.523438 62.476562 326.496094 62.476562 321.523438 C 62.476562 316.554688 58.445312 312.523438 53.476562 312.523438 M 53.476562 44.476562 C 48.503906 44.476562 44.476562 48.503906 44.476562 53.476562 C 44.476562 58.445312 48.503906 62.476562 53.476562 62.476562 C 58.445312 62.476562 62.476562 58.445312 62.476562 53.476562 C 62.476562 48.503906 58.445312 44.476562 53.476562 44.476562 M 321.523438 44.476562 C 316.554688 44.476562 312.523438 48.503906 312.523438 53.476562 C 312.523438 58.445312 316.554688 62.476562 321.523438 62.476562 C 326.496094 62.476562 330.523438 58.445312 330.523438 53.476562 C 330.523438 48.503906 326.496094 44.476562 321.523438 44.476562 M 321.523438 312.523438 C 316.554688 312.523438 312.523438 316.554688 312.523438 321.523438 C 312.523438 326.496094 316.554688 330.523438 321.523438 330.523438 C 326.496094 330.523438 330.523438 326.496094 330.523438 321.523438 C 330.523438 316.554688 326.496094 312.523438 321.523438 312.523438 " fill-opacity="1" fill-rule="nonzero"/><path fill="#2d425a" d="M 375 62.476562 L 375 33.375 C 368.101562 30.75 361.125 26.25 354.898438 20.101562 C 348.75 13.875 344.25 6.898438 341.625 0 L 33.375 0 C 30.75 6.898438 26.25 13.875 20.101562 20.101562 C 13.875 26.25 6.898438 30.75 0 33.375 L 0 341.625 C 1.726562 342.300781 3.449219 343.050781 5.175781 343.949219 C 5.625 344.175781 6 344.398438 6.449219 344.625 C 6.75 344.773438 7.050781 344.925781 7.351562 345.148438 C 7.425781 345.148438 7.5 345.226562 7.574219 345.300781 C 7.800781 345.375 7.949219 345.523438 8.175781 345.675781 C 10.351562 347.023438 12.523438 348.523438 14.699219 350.175781 C 15.074219 350.476562 15.449219 350.773438 15.824219 351.148438 C 16.125 351.375 16.351562 351.601562 16.574219 351.824219 C 17.324219 352.5 18.074219 353.175781 18.824219 353.925781 C 19.199219 354.300781 19.574219 354.675781 20.023438 355.050781 C 20.398438 355.425781 20.773438 355.800781 21.148438 356.25 C 21.824219 357 22.574219 357.75 23.25 358.5 C 23.476562 358.800781 23.699219 359.023438 23.925781 359.324219 L 24.824219 360.449219 C 25.050781 360.675781 25.199219 360.976562 25.425781 361.199219 C 25.800781 361.648438 26.175781 362.175781 26.550781 362.625 C 27 363.226562 27.375 363.824219 27.75 364.351562 C 28.875 366.074219 29.925781 367.800781 30.898438 369.601562 C 31.050781 369.898438 31.199219 370.125 31.273438 370.425781 L 31.5 370.875 C 31.648438 371.175781 31.800781 371.476562 31.875 371.699219 C 32.398438 372.824219 32.925781 373.949219 33.300781 375.148438 L 341.550781 375.148438 C 344.175781 368.25 348.675781 361.273438 354.824219 355.050781 C 357.148438 352.726562 359.550781 350.625 362.101562 348.824219 C 363.375 347.925781 364.648438 347.023438 365.925781 346.273438 C 366.75 345.75 367.648438 345.226562 368.476562 344.773438 C 369.300781 344.324219 370.199219 343.875 371.023438 343.425781 C 372.300781 342.824219 373.648438 342.226562 374.925781 341.773438 L 375 62.476562 M 351.675781 316.949219 C 351.675781 336.148438 336.148438 351.675781 316.949219 351.675781 L 58.050781 351.675781 C 38.851562 351.675781 23.324219 336.148438 23.324219 316.949219 L 23.324219 58.050781 C 23.324219 38.851562 38.851562 23.324219 58.050781 23.324219 L 316.949219 23.324219 C 336.148438 23.324219 351.675781 38.851562 351.675781 58.050781 L 351.675781 316.949219 " fill-opacity="1" fill-rule="nonzero"/><g clip-path="url(#id1)"><path fill="#2d425a" d="M 124.492188 249.476562 C 124.492188 249.476562 133.003906 245.171875 139.328125 246.8125 L 134.914062 243.058594 C 134.914062 243.058594 142.296875 237.90625 149.585938 239.878906 C 149.585938 239.878906 148.910156 232.054688 142.894531 231.691406 C 142.894531 231.691406 150.625 229.652344 159.273438 231.839844 C 159.273438 231.839844 155.765625 226.199219 146.269531 226.09375 C 146.269531 226.09375 159.542969 225.941406 167.277344 228.636719 C 167.277344 228.636719 163.550781 219.335938 152.109375 220.136719 C 152.109375 220.136719 159.375 219.003906 165.894531 221.761719 C 172.414062 224.523438 182.175781 217.210938 182.175781 217.210938 C 182.175781 217.210938 169.734375 218.910156 162.3125 213.542969 C 162.3125 213.542969 182.839844 219.417969 193.183594 209.335938 C 193.183594 209.335938 189.296875 210.738281 185.28125 209.765625 C 181.261719 208.789062 168.875 205.804688 162.921875 207.863281 C 162.921875 207.863281 173.800781 204.070312 188.816406 206.699219 C 203.835938 209.328125 211.488281 192.351562 211.488281 192.351562 C 211.488281 192.351562 200.484375 195.871094 188.894531 195.859375 C 188.894531 195.859375 219.054688 189.296875 226.789062 177.144531 C 226.789062 177.144531 241.535156 167.269531 242.90625 158.925781 C 242.90625 158.925781 229.585938 165.679688 223.65625 164.265625 C 223.65625 164.265625 251.195312 154.585938 257.457031 143.628906 C 257.457031 143.628906 261.910156 131.554688 264.332031 128.519531 C 266.75 125.488281 272.257812 116.46875 272.089844 114.421875 C 272.089844 114.421875 268.140625 118.210938 263.230469 119.996094 C 263.230469 119.996094 272.914062 112.277344 276.199219 106.066406 C 279.488281 99.851562 282.183594 79.296875 279.472656 73.816406 C 279.472656 73.816406 274.265625 83.117188 270.355469 85.011719 C 266.449219 86.902344 258.664062 95.523438 257.957031 97.6875 C 257.957031 97.6875 251.453125 104.925781 245.632812 106.570312 C 239.820312 108.210938 232.78125 120.515625 228.292969 132.761719 C 228.292969 132.761719 227.742188 120.886719 232.800781 115.1875 L 208.832031 133.378906 C 208.832031 133.378906 200.613281 140.636719 196.578125 147.191406 C 196.578125 147.191406 196.363281 143.820312 198.691406 141.355469 C 198.691406 141.355469 191.519531 147.84375 188.652344 151.660156 C 188.652344 151.660156 188.046875 148.410156 189.945312 146.621094 C 189.945312 146.621094 178.679688 156.78125 174.820312 164.578125 C 174.820312 164.578125 174.46875 163.128906 175.40625 162.023438 C 175.40625 162.023438 156.910156 170.078125 147.058594 190.765625 C 147.058594 190.765625 141.097656 202.324219 140.367188 205.863281 C 140.367188 205.863281 139.984375 200.339844 141.542969 197.660156 C 141.542969 197.660156 132.777344 205.546875 132.917969 218.652344 C 132.917969 218.652344 131.1875 211.699219 132.652344 209.457031 C 132.652344 209.457031 127.335938 214.542969 128.898438 225.261719 C 128.898438 225.261719 127.152344 223.074219 127.394531 221.789062 C 127.394531 221.789062 123.996094 234.449219 124.996094 241.625 L 124.492188 249.476562 " fill-opacity="1" fill-rule="nonzero"/></g><g clip-path="url(#id2)"><path fill="#6b7074" d="M 92.777344 301.054688 C 92.777344 301.054688 94.5625 293.171875 97.109375 291.710938 C 97.109375 291.710938 100.59375 289.148438 102.613281 288.074219 C 104.636719 286.996094 106.375 282.515625 106.375 282.515625 C 106.375 282.515625 117.3125 259.332031 124.863281 248.957031 C 124.863281 248.957031 146.628906 213.710938 178.105469 183.003906 C 178.105469 183.003906 193.691406 168.34375 205.257812 160.132812 C 205.257812 160.132812 259.910156 117.667969 267.382812 99.625 C 267.382812 99.625 263.726562 111.929688 203.269531 159.960938 C 203.269531 159.960938 163.007812 190.40625 144.210938 216.417969 C 144.210938 216.417969 115.472656 252.707031 105.929688 269.800781 C 105.929688 269.800781 92.46875 290.125 92.777344 301.054688 " fill-opacity="1" fill-rule="nonzero"/></g><path fill="#2d425a" d="M 160.082031 262.261719 C 160.082031 263.011719 159.472656 263.617188 158.726562 263.617188 L 130.210938 263.617188 C 129.460938 263.617188 128.859375 263.011719 128.859375 262.261719 C 128.859375 261.515625 129.460938 260.90625 130.210938 260.90625 L 158.726562 260.90625 C 159.472656 260.90625 160.082031 261.515625 160.082031 262.261719 " fill-opacity="1" fill-rule="nonzero"/><path fill="#2d425a" d="M 161.703125 269.765625 C 158.996094 269.585938 153.808594 267.28125 157.507812 263.617188 L 131.429688 263.617188 C 135.128906 267.28125 129.9375 269.585938 127.234375 269.765625 C 124.523438 269.945312 124.976562 273.289062 124.976562 273.289062 L 124.976562 296.605469 C 124.886719 299.5 130.839844 299.410156 130.839844 299.410156 L 158.097656 299.410156 C 158.097656 299.410156 164.050781 299.5 163.960938 296.605469 L 163.960938 273.289062 C 163.960938 273.289062 164.410156 269.945312 161.703125 269.765625 " fill-opacity="1" fill-rule="nonzero"/><path fill="#2d425a" d="M 150.695312 264.339844 C 150.695312 264.339844 149.160156 268.136719 152.589844 269.585938 C 156.019531 271.03125 156.921875 272.929688 156.742188 283.59375 L 156.761719 295.433594 C 156.761719 295.433594 156.742188 297.332031 156.152344 297.917969 L 161.476562 297.917969 C 161.476562 297.917969 162.835938 297.375 162.878906 294.53125 L 162.878906 275.6875 C 162.878906 275.6875 163.328125 270.941406 159.269531 270.171875 C 155.207031 269.402344 153.855469 266.195312 154.847656 264.339844 L 150.695312 264.339844 " fill-opacity="1" fill-rule="nonzero"/></svg>