<svg xmlns="http://www.w3.org/2000/svg" xmlns:xlink="http://www.w3.org/1999/xlink" width="500" zoomAndPan="magnify" viewBox="0 0 375 374.999991" height="500" preserveAspectRatio="xMidYMid meet" version="1.0"><defs><clipPath id="id1"><path d="M 105 97.429688 L 269 97.429688 L 269 171 L 105 171 Z M 105 97.429688 " clip-rule="nonzero"/></clipPath><clipPath id="id2"><path d="M 235 230 L 302.460938 230 L 302.460938 252 L 235 252 Z M 235 230 " clip-rule="nonzero"/></clipPath><clipPath id="id3"><path d="M 72.210938 230 L 140 230 L 140 252 L 72.210938 252 Z M 72.210938 230 " clip-rule="nonzero"/></clipPath><clipPath id="id4"><path d="M 164 150 L 173 150 L 173 277.429688 L 164 277.429688 Z M 164 150 " clip-rule="nonzero"/></clipPath></defs><path fill="#ffffff" d="M 351.675781 58.050781 L 351.675781 316.949219 C 351.675781 336.148438 336.148438 351.675781 316.949219 351.675781 L 58.050781 351.675781 C 38.851562 351.675781 23.324219 336.148438 23.324219 316.949219 L 23.324219 58.050781 C 23.324219 38.851562 38.851562 23.324219 58.050781 23.324219 L 316.949219 23.324219 C 336.148438 23.324219 351.675781 38.851562 351.675781 58.050781 " fill-opacity="1" fill-rule="nonzero"/><path fill="#c2912b" d="M 53.476562 312.523438 C 48.503906 312.523438 44.476562 316.554688 44.476562 321.523438 C 44.476562 326.496094 48.503906 330.523438 53.476562 330.523438 C 58.445312 330.523438 62.476562 326.496094 62.476562 321.523438 C 62.476562 316.554688 58.445312 312.523438 53.476562 312.523438 M 53.476562 44.476562 C 48.503906 44.476562 44.476562 48.503906 44.476562 53.476562 C 44.476562 58.445312 48.503906 62.476562 53.476562 62.476562 C 58.445312 62.476562 62.476562 58.445312 62.476562 53.476562 C 62.476562 48.503906 58.445312 44.476562 53.476562 44.476562 M 321.523438 44.476562 C 316.554688 44.476562 312.523438 48.503906 312.523438 53.476562 C 312.523438 58.445312 316.554688 62.476562 321.523438 62.476562 C 326.496094 62.476562 330.523438 58.445312 330.523438 53.476562 C 330.523438 48.503906 326.496094 44.476562 321.523438 44.476562 M 321.523438 312.523438 C 316.554688 312.523438 312.523438 316.554688 312.523438 321.523438 C 312.523438 326.496094 316.554688 330.523438 321.523438 330.523438 C 326.496094 330.523438 330.523438 326.496094 330.523438 321.523438 C 330.523438 316.554688 326.496094 312.523438 321.523438 312.523438 " fill-opacity="1" fill-rule="nonzero"/><path fill="#2d425a" d="M 375 62.476562 L 375 33.375 C 368.101562 30.75 361.125 26.25 354.898438 20.101562 C 348.75 13.875 344.25 6.898438 341.625 0 L 33.375 0 C 30.75 6.898438 26.25 13.875 20.101562 20.101562 C 13.875 26.25 6.898438 30.75 0 33.375 L 0 341.625 C 1.726562 342.300781 3.449219 343.050781 5.175781 343.949219 C 5.625 344.175781 6 344.398438 6.449219 344.625 C 6.75 344.773438 7.050781 344.925781 7.351562 345.148438 C 7.425781 345.148438 7.5 345.226562 7.574219 345.300781 C 7.800781 345.375 7.949219 345.523438 8.175781 345.675781 C 10.351562 347.023438 12.523438 348.523438 14.699219 350.175781 C 15.074219 350.476562 15.449219 350.773438 15.824219 351.148438 C 16.125 351.375 16.351562 351.601562 16.574219 351.824219 C 17.324219 352.5 18.074219 353.175781 18.824219 353.925781 C 19.199219 354.300781 19.574219 354.675781 20.023438 355.050781 C 20.398438 355.425781 20.773438 355.800781 21.148438 356.25 C 21.824219 357 22.574219 357.75 23.25 358.5 C 23.476562 358.800781 23.699219 359.023438 23.925781 359.324219 L 24.824219 360.449219 C 25.050781 360.675781 25.199219 360.976562 25.425781 361.199219 C 25.800781 361.648438 26.175781 362.175781 26.550781 362.625 C 27 363.226562 27.375 363.824219 27.75 364.351562 C 28.875 366.074219 29.925781 367.800781 30.898438 369.601562 C 31.050781 369.898438 31.199219 370.125 31.273438 370.425781 L 31.5 370.875 C 31.648438 371.175781 31.800781 371.476562 31.875 371.699219 C 32.398438 372.824219 32.925781 373.949219 33.300781 375.148438 L 341.550781 375.148438 C 344.175781 368.25 348.675781 361.273438 354.824219 355.050781 C 357.148438 352.726562 359.550781 350.625 362.101562 348.824219 C 363.375 347.925781 364.648438 347.023438 365.925781 346.273438 C 366.75 345.75 367.648438 345.226562 368.476562 344.773438 C 369.300781 344.324219 370.199219 343.875 371.023438 343.425781 C 372.300781 342.824219 373.648438 342.226562 374.925781 341.773438 L 375 62.476562 M 351.675781 316.949219 C 351.675781 336.148438 336.148438 351.675781 316.949219 351.675781 L 58.050781 351.675781 C 38.851562 351.675781 23.324219 336.148438 23.324219 316.949219 L 23.324219 58.050781 C 23.324219 38.851562 38.851562 23.324219 58.050781 23.324219 L 316.949219 23.324219 C 336.148438 23.324219 351.675781 38.851562 351.675781 58.050781 L 351.675781 316.949219 " fill-opacity="1" fill-rule="nonzero"/><g clip-path="url(#id1)"><path fill="#2d425a" d="M 187.355469 97.433594 C 187.402344 98.09375 187.378906 98.421875 187.355469 98.421875 C 187.332031 98.421875 187.3125 98.09375 187.355469 97.433594 C 184.5625 103.640625 170.417969 179.101562 105.792969 164.546875 C 113.96875 168.496094 123.292969 170.734375 133.191406 170.734375 C 157.667969 170.734375 178.632812 157.0625 187.355469 137.664062 C 196.082031 157.0625 217.042969 170.734375 241.523438 170.734375 C 251.421875 170.734375 260.746094 168.496094 268.917969 164.546875 C 204.292969 179.101562 190.148438 103.640625 187.355469 97.433594 " fill-opacity="1" fill-rule="nonzero"/></g><path fill="#2d425a" d="M 275.617188 164.027344 C 275.617188 167.730469 272.617188 170.734375 268.917969 170.734375 C 265.21875 170.734375 262.21875 167.730469 262.21875 164.027344 C 262.21875 160.328125 265.21875 157.324219 268.917969 157.324219 C 272.617188 157.324219 275.617188 160.328125 275.617188 164.027344 " fill-opacity="1" fill-rule="nonzero"/><path fill="#2d425a" d="M 112.492188 164.027344 C 112.492188 167.730469 109.496094 170.734375 105.792969 170.734375 C 102.09375 170.734375 99.09375 167.730469 99.09375 164.027344 C 99.09375 160.328125 102.09375 157.324219 105.792969 157.324219 C 109.496094 157.324219 112.492188 160.328125 112.492188 164.027344 " fill-opacity="1" fill-rule="nonzero"/><g clip-path="url(#id2)"><path fill="#2d425a" d="M 302.234375 230.105469 C 302.234375 241.769531 287.320312 251.222656 268.917969 251.222656 C 250.515625 251.222656 235.601562 241.769531 235.601562 230.105469 L 302.234375 230.105469 " fill-opacity="1" fill-rule="nonzero"/></g><path fill="#2d425a" d="M 250.898438 232.113281 L 286.9375 232.113281 L 268.917969 173.796875 Z M 291.023438 235.132812 L 246.8125 235.132812 L 268.917969 163.585938 L 291.023438 235.132812 " fill-opacity="1" fill-rule="nonzero"/><g clip-path="url(#id3)"><path fill="#2d425a" d="M 139.113281 230.105469 C 139.113281 241.769531 124.195312 251.222656 105.792969 251.222656 C 87.394531 251.222656 72.476562 241.769531 72.476562 230.105469 L 139.113281 230.105469 " fill-opacity="1" fill-rule="nonzero"/></g><path fill="#2d425a" d="M 87.777344 232.113281 L 123.8125 232.113281 L 105.792969 173.796875 Z M 127.898438 235.132812 L 83.691406 235.132812 L 105.792969 163.585938 L 127.898438 235.132812 " fill-opacity="1" fill-rule="nonzero"/><path fill="#2d425a" d="M 210.105469 241.640625 L 210.105469 150.65625 L 202.292969 150.65625 L 202.292969 244.792969 C 204.890625 243.601562 207.5 242.550781 210.105469 241.640625 " fill-opacity="1" fill-rule="nonzero"/><path fill="#2d425a" d="M 191.265625 250.78125 L 191.265625 134.082031 L 183.449219 134.082031 L 183.449219 256.316406 C 185.90625 254.375 188.515625 252.523438 191.265625 250.78125 " fill-opacity="1" fill-rule="nonzero"/><g clip-path="url(#id4)"><path fill="#2d425a" d="M 172.421875 266.746094 L 172.421875 150.65625 L 164.605469 150.65625 L 164.605469 277.425781 C 166.777344 273.769531 169.398438 270.1875 172.421875 266.746094 " fill-opacity="1" fill-rule="nonzero"/></g></svg>