<svg xmlns="http://www.w3.org/2000/svg" xmlns:xlink="http://www.w3.org/1999/xlink" width="500" zoomAndPan="magnify" viewBox="0 0 375 374.999991" height="500" preserveAspectRatio="xMidYMid meet" version="1.0"><defs><clipPath id="id1"><path d="M 76.691406 99.753906 L 239.617188 99.753906 L 239.617188 274.089844 L 76.691406 274.089844 Z M 76.691406 99.753906 " clip-rule="nonzero"/></clipPath><clipPath id="id2"><path d="M 156.296875 238.632812 L 297.925781 238.632812 L 297.925781 274.089844 L 156.296875 274.089844 Z M 156.296875 238.632812 " clip-rule="nonzero"/></clipPath></defs><path fill="#ffffff" d="M 351.675781 58.050781 L 351.675781 316.949219 C 351.675781 336.148438 336.148438 351.675781 316.949219 351.675781 L 58.050781 351.675781 C 38.851562 351.675781 23.324219 336.148438 23.324219 316.949219 L 23.324219 58.050781 C 23.324219 38.851562 38.851562 23.324219 58.050781 23.324219 L 316.949219 23.324219 C 336.148438 23.324219 351.675781 38.851562 351.675781 58.050781 " fill-opacity="1" fill-rule="nonzero"/><path fill="#c2912b" d="M 53.476562 312.523438 C 48.503906 312.523438 44.476562 316.554688 44.476562 321.523438 C 44.476562 326.496094 48.503906 330.523438 53.476562 330.523438 C 58.445312 330.523438 62.476562 326.496094 62.476562 321.523438 C 62.476562 316.554688 58.445312 312.523438 53.476562 312.523438 M 53.476562 44.476562 C 48.503906 44.476562 44.476562 48.503906 44.476562 53.476562 C 44.476562 58.445312 48.503906 62.476562 53.476562 62.476562 C 58.445312 62.476562 62.476562 58.445312 62.476562 53.476562 C 62.476562 48.503906 58.445312 44.476562 53.476562 44.476562 M 321.523438 44.476562 C 316.554688 44.476562 312.523438 48.503906 312.523438 53.476562 C 312.523438 58.445312 316.554688 62.476562 321.523438 62.476562 C 326.496094 62.476562 330.523438 58.445312 330.523438 53.476562 C 330.523438 48.503906 326.496094 44.476562 321.523438 44.476562 M 321.523438 312.523438 C 316.554688 312.523438 312.523438 316.554688 312.523438 321.523438 C 312.523438 326.496094 316.554688 330.523438 321.523438 330.523438 C 326.496094 330.523438 330.523438 326.496094 330.523438 321.523438 C 330.523438 316.554688 326.496094 312.523438 321.523438 312.523438 " fill-opacity="1" fill-rule="nonzero"/><path fill="#2d425a" d="M 375 62.476562 L 375 33.375 C 368.101562 30.75 361.125 26.25 354.898438 20.101562 C 348.75 13.875 344.25 6.898438 341.625 0 L 33.375 0 C 30.75 6.898438 26.25 13.875 20.101562 20.101562 C 13.875 26.25 6.898438 30.75 0 33.375 L 0 341.625 C 1.726562 342.300781 3.449219 343.050781 5.175781 343.949219 C 5.625 344.175781 6 344.398438 6.449219 344.625 C 6.75 344.773438 7.050781 344.925781 7.351562 345.148438 C 7.425781 345.148438 7.5 345.226562 7.574219 345.300781 C 7.800781 345.375 7.949219 345.523438 8.175781 345.675781 C 10.351562 347.023438 12.523438 348.523438 14.699219 350.175781 C 15.074219 350.476562 15.449219 350.773438 15.824219 351.148438 C 16.125 351.375 16.351562 351.601562 16.574219 351.824219 C 17.324219 352.5 18.074219 353.175781 18.824219 353.925781 C 19.199219 354.300781 19.574219 354.675781 20.023438 355.050781 C 20.398438 355.425781 20.773438 355.800781 21.148438 356.25 C 21.824219 357 22.574219 357.75 23.25 358.5 C 23.476562 358.800781 23.699219 359.023438 23.925781 359.324219 L 24.824219 360.449219 C 25.050781 360.675781 25.199219 360.976562 25.425781 361.199219 C 25.800781 361.648438 26.175781 362.175781 26.550781 362.625 C 27 363.226562 27.375 363.824219 27.75 364.351562 C 28.875 366.074219 29.925781 367.800781 30.898438 369.601562 C 31.050781 369.898438 31.199219 370.125 31.273438 370.425781 L 31.5 370.875 C 31.648438 371.175781 31.800781 371.476562 31.875 371.699219 C 32.398438 372.824219 32.925781 373.949219 33.300781 375.148438 L 341.550781 375.148438 C 344.175781 368.25 348.675781 361.273438 354.824219 355.050781 C 357.148438 352.726562 359.550781 350.625 362.101562 348.824219 C 363.375 347.925781 364.648438 347.023438 365.925781 346.273438 C 366.75 345.75 367.648438 345.226562 368.476562 344.773438 C 369.300781 344.324219 370.199219 343.875 371.023438 343.425781 C 372.300781 342.824219 373.648438 342.226562 374.925781 341.773438 L 375 62.476562 M 351.675781 316.949219 C 351.675781 336.148438 336.148438 351.675781 316.949219 351.675781 L 58.050781 351.675781 C 38.851562 351.675781 23.324219 336.148438 23.324219 316.949219 L 23.324219 58.050781 C 23.324219 38.851562 38.851562 23.324219 58.050781 23.324219 L 316.949219 23.324219 C 336.148438 23.324219 351.675781 38.851562 351.675781 58.050781 L 351.675781 316.949219 " fill-opacity="1" fill-rule="nonzero"/><path fill="#c2921d" d="M 178.378906 257.535156 L 237.730469 254.917969 C 228.425781 242.640625 225.652344 227.398438 223.609375 212.664062 C 220.132812 187.589844 218.09375 162.359375 217.511719 137.097656 C 217.292969 127.695312 217.074219 117.679688 211.242188 109.863281 C 207.824219 105.285156 201.671875 102.105469 195.707031 101.621094 L 78.554688 101.621094 C 84.53125 102.09375 90.699219 105.277344 94.121094 109.863281 C 99.957031 117.679688 100.171875 127.695312 100.390625 137.097656 C 100.976562 162.359375 103.011719 187.589844 106.484375 212.664062 C 108.527344 227.398438 111.304688 242.640625 120.609375 254.917969 C 129.910156 267.199219 147.578125 275.625 163.261719 270.878906 C 170.234375 268.773438 176.429688 263.902344 178.378906 257.535156 " fill-opacity="1" fill-rule="nonzero"/><path fill="#fabe4d" d="M 139.601562 254.917969 C 130.296875 242.640625 127.523438 227.398438 125.480469 212.664062 C 122.003906 187.589844 119.96875 162.359375 119.382812 137.097656 C 119.164062 127.695312 118.945312 117.679688 113.113281 109.863281 C 109.695312 105.28125 103.542969 102.105469 97.570312 101.621094 L 78.578125 101.621094 C 84.546875 102.105469 90.699219 105.28125 94.121094 109.863281 C 99.957031 117.679688 100.171875 127.695312 100.390625 137.097656 C 100.976562 162.359375 103.011719 187.589844 106.484375 212.664062 C 108.527344 227.398438 111.304688 242.640625 120.609375 254.917969 C 129.910156 267.199219 147.578125 275.625 163.261719 270.878906 L 163.273438 270.878906 C 153.855469 268.316406 145.210938 262.320312 139.601562 254.917969 " fill-opacity="1" fill-rule="nonzero"/><g clip-path="url(#id1)"><path fill="#272626" d="M 178.460938 259.398438 L 237.808594 256.785156 C 238.503906 256.753906 239.117188 256.339844 239.414062 255.710938 C 239.707031 255.082031 239.628906 254.34375 239.210938 253.789062 C 234.730469 247.878906 231.796875 241.21875 229.730469 234.183594 C 227.664062 227.152344 226.46875 219.75 225.449219 212.40625 C 221.984375 187.402344 219.957031 162.242188 219.367188 137.054688 C 219.257812 132.351562 219.15625 127.410156 218.3125 122.5625 C 217.472656 117.726562 215.875 112.953125 212.730469 108.746094 C 210.820312 106.191406 208.21875 104.097656 205.292969 102.554688 C 202.367188 101.015625 199.117188 100.027344 195.855469 99.761719 L 195.707031 99.757812 L 78.554688 99.757812 L 78.554688 101.621094 L 80.40625 101.488281 L 80.40625 101.484375 L 78.554688 101.621094 L 78.40625 103.480469 C 81.117188 103.695312 83.933594 104.535156 86.429688 105.855469 C 88.9375 107.167969 91.121094 108.953125 92.632812 110.980469 C 95.324219 114.585938 96.746094 118.734375 97.53125 123.207031 C 98.308594 127.675781 98.421875 132.4375 98.527344 137.136719 C 99.121094 162.472656 101.160156 187.777344 104.644531 212.921875 C 105.671875 220.316406 106.882812 227.902344 109.039062 235.238281 C 111.195312 242.578125 114.304688 249.683594 119.128906 256.050781 C 123.058594 261.234375 128.367188 265.722656 134.394531 268.933594 C 140.425781 272.148438 147.183594 274.089844 154.015625 274.089844 C 157.292969 274.089844 160.582031 273.644531 163.796875 272.667969 C 167.519531 271.542969 171.027344 269.691406 173.910156 267.226562 C 176.792969 264.765625 179.058594 261.671875 180.15625 258.078125 C 180.460938 257.09375 179.90625 256.050781 178.925781 255.75 C 177.941406 255.445312 176.902344 256 176.601562 256.984375 C 175.753906 259.761719 173.949219 262.292969 171.5 264.382812 C 169.054688 266.476562 165.980469 268.113281 162.722656 269.097656 C 159.875 269.957031 156.957031 270.355469 154.015625 270.355469 C 147.894531 270.359375 141.703125 268.601562 136.140625 265.636719 C 130.578125 262.675781 125.664062 258.511719 122.089844 253.789062 C 117.609375 247.878906 114.679688 241.21875 112.609375 234.183594 C 110.539062 227.152344 109.34375 219.75 108.328125 212.40625 C 104.863281 187.402344 102.832031 162.242188 102.25 137.054688 C 102.136719 132.351562 102.035156 127.410156 101.195312 122.5625 C 100.351562 117.726562 98.753906 112.953125 95.609375 108.746094 C 93.695312 106.1875 91.085938 104.089844 88.15625 102.546875 C 85.226562 101.007812 81.964844 100.019531 78.703125 99.757812 C 78.15625 99.714844 77.628906 99.910156 77.242188 100.296875 C 76.855469 100.679688 76.660156 101.207031 76.699219 101.753906 L 76.699219 101.757812 C 76.769531 102.734375 77.578125 103.488281 78.554688 103.488281 L 195.707031 103.488281 L 195.707031 101.621094 L 195.554688 103.484375 C 198.265625 103.703125 201.070312 104.546875 203.566406 105.859375 C 206.066406 107.171875 208.242188 108.957031 209.753906 110.980469 C 212.441406 114.585938 213.871094 118.734375 214.648438 123.207031 C 215.429688 127.675781 215.542969 132.4375 215.652344 137.136719 C 216.238281 162.472656 218.28125 187.777344 221.765625 212.921875 C 222.792969 220.316406 224.007812 227.902344 226.164062 235.238281 C 228.320312 242.578125 231.425781 249.683594 236.25 256.050781 L 237.730469 254.917969 L 237.648438 253.054688 L 178.296875 255.667969 C 177.269531 255.714844 176.476562 256.585938 176.523438 257.617188 C 176.566406 258.644531 177.433594 259.441406 178.464844 259.398438 L 178.460938 259.398438 " fill-opacity="1" fill-rule="nonzero"/></g><path fill="#272626" d="M 117.535156 141.078125 L 194.757812 141.078125 C 195.785156 141.078125 196.617188 140.246094 196.617188 139.210938 C 196.617188 138.183594 195.785156 137.34375 194.757812 137.34375 L 117.535156 137.34375 C 116.507812 137.34375 115.675781 138.183594 115.675781 139.210938 C 115.675781 140.246094 116.507812 141.078125 117.535156 141.078125 " fill-opacity="1" fill-rule="nonzero"/><path fill="#272626" d="M 117.535156 141.078125 L 194.757812 141.078125 C 195.785156 141.078125 196.617188 140.246094 196.617188 139.210938 C 196.617188 138.183594 195.785156 137.34375 194.757812 137.34375 L 117.535156 137.34375 C 116.507812 137.34375 115.675781 138.183594 115.675781 139.210938 C 115.675781 140.246094 116.507812 141.078125 117.535156 141.078125 " fill-opacity="1" fill-rule="nonzero"/><path fill="#272626" d="M 120.367188 166.023438 L 197.589844 166.023438 C 198.617188 166.023438 199.449219 165.1875 199.449219 164.160156 C 199.449219 163.125 198.617188 162.292969 197.589844 162.292969 L 120.367188 162.292969 C 119.339844 162.292969 118.503906 163.125 118.503906 164.160156 C 118.503906 165.1875 119.339844 166.023438 120.367188 166.023438 " fill-opacity="1" fill-rule="nonzero"/><path fill="#272626" d="M 123.453125 189.578125 L 200.679688 189.578125 C 201.707031 189.578125 202.539062 188.746094 202.539062 187.714844 C 202.539062 186.683594 201.707031 185.847656 200.679688 185.847656 L 123.453125 185.847656 C 122.429688 185.847656 121.59375 186.683594 121.59375 187.714844 C 121.59375 188.746094 122.429688 189.578125 123.453125 189.578125 " fill-opacity="1" fill-rule="nonzero"/><path fill="#272626" d="M 127.316406 213.136719 L 204.542969 213.136719 C 205.566406 213.136719 206.402344 212.304688 206.402344 211.269531 C 206.402344 210.242188 205.566406 209.402344 204.542969 209.402344 L 127.316406 209.402344 C 126.289062 209.402344 125.457031 210.242188 125.457031 211.269531 C 125.457031 212.304688 126.289062 213.136719 127.316406 213.136719 " fill-opacity="1" fill-rule="nonzero"/><path fill="#2d425a" d="M 158.203125 272.222656 C 168.5 270.628906 176.429688 263.902344 178.378906 257.535156 C 180.324219 251.164062 177.164062 243.503906 170.460938 240.765625 L 287.585938 240.765625 C 294.285156 243.503906 297.449219 251.164062 295.5 257.535156 C 293.554688 263.902344 287.359375 268.773438 280.382812 270.878906 L 158.203125 272.222656 " fill-opacity="1" fill-rule="nonzero"/><g clip-path="url(#id2)"><path fill="#272626" d="M 158.488281 274.070312 C 163.957031 273.21875 168.789062 271.019531 172.550781 268.15625 C 176.304688 265.285156 179.019531 261.765625 180.15625 258.078125 C 180.597656 256.640625 180.808594 255.15625 180.808594 253.675781 C 180.804688 250.648438 179.933594 247.636719 178.292969 245.046875 C 176.65625 242.457031 174.234375 240.292969 171.164062 239.039062 L 170.460938 240.765625 L 170.460938 242.632812 L 287.585938 242.632812 L 287.585938 240.765625 L 286.882812 242.496094 C 289.199219 243.441406 291.015625 245.0625 292.273438 247.050781 C 293.535156 249.03125 294.210938 251.371094 294.207031 253.675781 C 294.207031 254.800781 294.046875 255.917969 293.722656 256.984375 C 292.875 259.761719 291.070312 262.292969 288.621094 264.382812 C 286.179688 266.476562 283.101562 268.113281 279.847656 269.097656 L 280.382812 270.878906 L 280.359375 269.015625 L 158.183594 270.355469 C 157.160156 270.367188 156.332031 271.214844 156.34375 272.242188 C 156.355469 273.273438 157.199219 274.101562 158.226562 274.089844 L 280.402344 272.746094 C 280.574219 272.746094 280.75 272.71875 280.917969 272.667969 C 284.636719 271.542969 288.148438 269.691406 291.035156 267.226562 C 293.910156 264.765625 296.179688 261.671875 297.28125 258.078125 C 297.71875 256.640625 297.925781 255.15625 297.925781 253.675781 C 297.925781 250.648438 297.054688 247.636719 295.414062 245.046875 C 293.777344 242.457031 291.355469 240.292969 288.285156 239.039062 C 288.066406 238.949219 287.816406 238.898438 287.585938 238.898438 L 170.460938 238.898438 C 169.578125 238.898438 168.808594 239.535156 168.636719 240.410156 C 168.464844 241.28125 168.941406 242.160156 169.761719 242.496094 C 172.074219 243.441406 173.894531 245.0625 175.15625 247.050781 C 176.410156 249.03125 177.089844 251.371094 177.089844 253.675781 C 177.089844 254.804688 176.929688 255.917969 176.601562 256.984375 C 175.792969 259.667969 173.570312 262.695312 170.300781 265.183594 C 167.035156 267.671875 162.75 269.632812 157.921875 270.378906 C 156.90625 270.535156 156.210938 271.492188 156.367188 272.507812 C 156.523438 273.527344 157.476562 274.226562 158.488281 274.070312 " fill-opacity="1" fill-rule="nonzero"/></g></svg>