<svg xmlns="http://www.w3.org/2000/svg" xmlns:xlink="http://www.w3.org/1999/xlink" width="500" zoomAndPan="magnify" viewBox="0 0 375 374.999991" height="500" preserveAspectRatio="xMidYMid meet" version="1.0"><defs><clipPath id="id1"><path d="M 76.578125 253 L 298.578125 253 L 298.578125 258.402344 L 76.578125 258.402344 Z M 76.578125 253 " clip-rule="nonzero"/></clipPath><clipPath id="id2"><path d="M 82 101 L 293 101 L 293 258.402344 L 82 258.402344 Z M 82 101 " clip-rule="nonzero"/></clipPath></defs><path fill="#ffffff" d="M 351.675781 58.050781 L 351.675781 316.949219 C 351.675781 336.148438 336.148438 351.675781 316.949219 351.675781 L 58.050781 351.675781 C 38.851562 351.675781 23.324219 336.148438 23.324219 316.949219 L 23.324219 58.050781 C 23.324219 38.851562 38.851562 23.324219 58.050781 23.324219 L 316.949219 23.324219 C 336.148438 23.324219 351.675781 38.851562 351.675781 58.050781 " fill-opacity="1" fill-rule="nonzero"/><path fill="#c2912b" d="M 53.476562 312.523438 C 48.503906 312.523438 44.476562 316.554688 44.476562 321.523438 C 44.476562 326.496094 48.503906 330.523438 53.476562 330.523438 C 58.445312 330.523438 62.476562 326.496094 62.476562 321.523438 C 62.476562 316.554688 58.445312 312.523438 53.476562 312.523438 M 53.476562 44.476562 C 48.503906 44.476562 44.476562 48.503906 44.476562 53.476562 C 44.476562 58.445312 48.503906 62.476562 53.476562 62.476562 C 58.445312 62.476562 62.476562 58.445312 62.476562 53.476562 C 62.476562 48.503906 58.445312 44.476562 53.476562 44.476562 M 321.523438 44.476562 C 316.554688 44.476562 312.523438 48.503906 312.523438 53.476562 C 312.523438 58.445312 316.554688 62.476562 321.523438 62.476562 C 326.496094 62.476562 330.523438 58.445312 330.523438 53.476562 C 330.523438 48.503906 326.496094 44.476562 321.523438 44.476562 M 321.523438 312.523438 C 316.554688 312.523438 312.523438 316.554688 312.523438 321.523438 C 312.523438 326.496094 316.554688 330.523438 321.523438 330.523438 C 326.496094 330.523438 330.523438 326.496094 330.523438 321.523438 C 330.523438 316.554688 326.496094 312.523438 321.523438 312.523438 " fill-opacity="1" fill-rule="nonzero"/><path fill="#2d425a" d="M 375 62.476562 L 375 33.375 C 368.101562 30.75 361.125 26.25 354.898438 20.101562 C 348.75 13.875 344.25 6.898438 341.625 0 L 33.375 0 C 30.75 6.898438 26.25 13.875 20.101562 20.101562 C 13.875 26.25 6.898438 30.75 0 33.375 L 0 341.625 C 1.726562 342.300781 3.449219 343.050781 5.175781 343.949219 C 5.625 344.175781 6 344.398438 6.449219 344.625 C 6.75 344.773438 7.050781 344.925781 7.351562 345.148438 C 7.425781 345.148438 7.5 345.226562 7.574219 345.300781 C 7.800781 345.375 7.949219 345.523438 8.175781 345.675781 C 10.351562 347.023438 12.523438 348.523438 14.699219 350.175781 C 15.074219 350.476562 15.449219 350.773438 15.824219 351.148438 C 16.125 351.375 16.351562 351.601562 16.574219 351.824219 C 17.324219 352.5 18.074219 353.175781 18.824219 353.925781 C 19.199219 354.300781 19.574219 354.675781 20.023438 355.050781 C 20.398438 355.425781 20.773438 355.800781 21.148438 356.25 C 21.824219 357 22.574219 357.75 23.25 358.5 C 23.476562 358.800781 23.699219 359.023438 23.925781 359.324219 L 24.824219 360.449219 C 25.050781 360.675781 25.199219 360.976562 25.425781 361.199219 C 25.800781 361.648438 26.175781 362.175781 26.550781 362.625 C 27 363.226562 27.375 363.824219 27.75 364.351562 C 28.875 366.074219 29.925781 367.800781 30.898438 369.601562 C 31.050781 369.898438 31.199219 370.125 31.273438 370.425781 L 31.5 370.875 C 31.648438 371.175781 31.800781 371.476562 31.875 371.699219 C 32.398438 372.824219 32.925781 373.949219 33.300781 375.148438 L 341.550781 375.148438 C 344.175781 368.25 348.675781 361.273438 354.824219 355.050781 C 357.148438 352.726562 359.550781 350.625 362.101562 348.824219 C 363.375 347.925781 364.648438 347.023438 365.925781 346.273438 C 366.75 345.75 367.648438 345.226562 368.476562 344.773438 C 369.300781 344.324219 370.199219 343.875 371.023438 343.425781 C 372.300781 342.824219 373.648438 342.226562 374.925781 341.773438 L 375 62.476562 M 351.675781 316.949219 C 351.675781 336.148438 336.148438 351.675781 316.949219 351.675781 L 58.050781 351.675781 C 38.851562 351.675781 23.324219 336.148438 23.324219 316.949219 L 23.324219 58.050781 C 23.324219 38.851562 38.851562 23.324219 58.050781 23.324219 L 316.949219 23.324219 C 336.148438 23.324219 351.675781 38.851562 351.675781 58.050781 L 351.675781 316.949219 " fill-opacity="1" fill-rule="nonzero"/><g clip-path="url(#id1)"><path fill="#2d425a" d="M 296.019531 258.273438 L 79.160156 258.273438 C 77.945312 258.273438 76.960938 257.292969 76.960938 256.078125 C 76.960938 254.863281 77.945312 253.882812 79.160156 253.882812 L 296.019531 253.882812 C 297.226562 253.882812 298.21875 254.863281 298.21875 256.078125 C 298.21875 257.292969 297.226562 258.273438 296.019531 258.273438 " fill-opacity="1" fill-rule="nonzero"/></g><g clip-path="url(#id2)"><path fill="#2d425a" d="M 97.863281 154.527344 C 97.703125 154.816406 97.464844 155.007812 97.160156 155.113281 L 86.402344 158.90625 C 84.117188 159.714844 82.59375 161.878906 82.59375 164.300781 L 82.59375 256.082031 C 82.59375 257.292969 83.574219 258.28125 84.789062 258.28125 L 154.691406 258.28125 L 154.691406 126.355469 C 116.53125 125.304688 100.730469 149.507812 97.863281 154.527344 Z M 287.679688 180.4375 L 267.847656 180.4375 L 267.847656 144.449219 C 274.371094 144.800781 281.019531 145.347656 287.679688 146.171875 Z M 287.679688 218.632812 L 267.847656 218.632812 L 267.847656 184.832031 L 287.679688 184.832031 Z M 287.679688 253.886719 L 267.847656 253.886719 L 267.847656 223.023438 L 287.679688 223.023438 Z M 263.453125 180.4375 L 237.460938 180.4375 L 237.460938 144.257812 C 245.671875 143.957031 254.417969 143.90625 263.453125 144.257812 Z M 263.453125 218.632812 L 237.460938 218.632812 L 237.460938 184.832031 L 263.453125 184.832031 Z M 263.453125 253.886719 L 237.460938 253.886719 L 237.460938 223.023438 L 263.453125 223.023438 Z M 233.066406 180.4375 L 208.492188 180.4375 L 208.492188 146.351562 C 215.667969 145.574219 223.976562 144.855469 233.066406 144.429688 Z M 233.066406 218.632812 L 208.492188 218.632812 L 208.492188 184.832031 L 233.066406 184.832031 Z M 233.066406 253.886719 L 208.492188 253.886719 L 208.492188 223.023438 L 233.066406 223.023438 Z M 204.097656 180.4375 L 183.445312 180.4375 L 183.445312 149.945312 C 186.613281 149.347656 193.9375 148.085938 204.097656 146.859375 Z M 204.097656 218.632812 L 183.445312 218.632812 L 183.445312 184.832031 L 204.097656 184.832031 Z M 204.097656 253.886719 L 183.445312 253.886719 L 183.445312 223.023438 L 204.097656 223.023438 Z M 289.875 110.003906 C 289.539062 109.722656 289.167969 109.496094 288.769531 109.316406 C 236.988281 85.816406 168.789062 121.003906 159.085938 126.273438 L 159.085938 258.28125 L 289.875 258.28125 C 291.082031 258.28125 292.070312 257.292969 292.070312 256.082031 L 292.070312 114.519531 C 292.070312 112.726562 291.242188 111.054688 289.875 110.003906 " fill-opacity="1" fill-rule="nonzero"/></g></svg>