<svg xmlns="http://www.w3.org/2000/svg" xmlns:xlink="http://www.w3.org/1999/xlink" width="500" zoomAndPan="magnify" viewBox="0 0 375 374.999991" height="500" preserveAspectRatio="xMidYMid meet" version="1.0"><defs><clipPath id="id1"><path d="M 100.917969 279 L 274 279 L 274 287 L 100.917969 287 Z M 100.917969 279 " clip-rule="nonzero"/></clipPath></defs><path fill="#ffffff" d="M 351.675781 58.050781 L 351.675781 316.949219 C 351.675781 336.148438 336.148438 351.675781 316.949219 351.675781 L 58.050781 351.675781 C 38.851562 351.675781 23.324219 336.148438 23.324219 316.949219 L 23.324219 58.050781 C 23.324219 38.851562 38.851562 23.324219 58.050781 23.324219 L 316.949219 23.324219 C 336.148438 23.324219 351.675781 38.851562 351.675781 58.050781 " fill-opacity="1" fill-rule="nonzero"/><path fill="#c2912b" d="M 53.476562 312.523438 C 48.503906 312.523438 44.476562 316.554688 44.476562 321.523438 C 44.476562 326.496094 48.503906 330.523438 53.476562 330.523438 C 58.445312 330.523438 62.476562 326.496094 62.476562 321.523438 C 62.476562 316.554688 58.445312 312.523438 53.476562 312.523438 M 53.476562 44.476562 C 48.503906 44.476562 44.476562 48.503906 44.476562 53.476562 C 44.476562 58.445312 48.503906 62.476562 53.476562 62.476562 C 58.445312 62.476562 62.476562 58.445312 62.476562 53.476562 C 62.476562 48.503906 58.445312 44.476562 53.476562 44.476562 M 321.523438 44.476562 C 316.554688 44.476562 312.523438 48.503906 312.523438 53.476562 C 312.523438 58.445312 316.554688 62.476562 321.523438 62.476562 C 326.496094 62.476562 330.523438 58.445312 330.523438 53.476562 C 330.523438 48.503906 326.496094 44.476562 321.523438 44.476562 M 321.523438 312.523438 C 316.554688 312.523438 312.523438 316.554688 312.523438 321.523438 C 312.523438 326.496094 316.554688 330.523438 321.523438 330.523438 C 326.496094 330.523438 330.523438 326.496094 330.523438 321.523438 C 330.523438 316.554688 326.496094 312.523438 321.523438 312.523438 " fill-opacity="1" fill-rule="nonzero"/><path fill="#2d425a" d="M 375 62.476562 L 375 33.375 C 368.101562 30.75 361.125 26.25 354.898438 20.101562 C 348.75 13.875 344.25 6.898438 341.625 0 L 33.375 0 C 30.75 6.898438 26.25 13.875 20.101562 20.101562 C 13.875 26.25 6.898438 30.75 0 33.375 L 0 341.625 C 1.726562 342.300781 3.449219 343.050781 5.175781 343.949219 C 5.625 344.175781 6 344.398438 6.449219 344.625 C 6.75 344.773438 7.050781 344.925781 7.351562 345.148438 C 7.425781 345.148438 7.5 345.226562 7.574219 345.300781 C 7.800781 345.375 7.949219 345.523438 8.175781 345.675781 C 10.351562 347.023438 12.523438 348.523438 14.699219 350.175781 C 15.074219 350.476562 15.449219 350.773438 15.824219 351.148438 C 16.125 351.375 16.351562 351.601562 16.574219 351.824219 C 17.324219 352.5 18.074219 353.175781 18.824219 353.925781 C 19.199219 354.300781 19.574219 354.675781 20.023438 355.050781 C 20.398438 355.425781 20.773438 355.800781 21.148438 356.25 C 21.824219 357 22.574219 357.75 23.25 358.5 C 23.476562 358.800781 23.699219 359.023438 23.925781 359.324219 L 24.824219 360.449219 C 25.050781 360.675781 25.199219 360.976562 25.425781 361.199219 C 25.800781 361.648438 26.175781 362.175781 26.550781 362.625 C 27 363.226562 27.375 363.824219 27.75 364.351562 C 28.875 366.074219 29.925781 367.800781 30.898438 369.601562 C 31.050781 369.898438 31.199219 370.125 31.273438 370.425781 L 31.5 370.875 C 31.648438 371.175781 31.800781 371.476562 31.875 371.699219 C 32.398438 372.824219 32.925781 373.949219 33.300781 375.148438 L 341.550781 375.148438 C 344.175781 368.25 348.675781 361.273438 354.824219 355.050781 C 357.148438 352.726562 359.550781 350.625 362.101562 348.824219 C 363.375 347.925781 364.648438 347.023438 365.925781 346.273438 C 366.75 345.75 367.648438 345.226562 368.476562 344.773438 C 369.300781 344.324219 370.199219 343.875 371.023438 343.425781 C 372.300781 342.824219 373.648438 342.226562 374.925781 341.773438 L 375 62.476562 M 351.675781 316.949219 C 351.675781 336.148438 336.148438 351.675781 316.949219 351.675781 L 58.050781 351.675781 C 38.851562 351.675781 23.324219 336.148438 23.324219 316.949219 L 23.324219 58.050781 C 23.324219 38.851562 38.851562 23.324219 58.050781 23.324219 L 316.949219 23.324219 C 336.148438 23.324219 351.675781 38.851562 351.675781 58.050781 L 351.675781 316.949219 " fill-opacity="1" fill-rule="nonzero"/><g clip-path="url(#id1)"><path fill="#2d425a" d="M 270.253906 286.289062 C 272.160156 286.289062 273.707031 284.742188 273.707031 282.839844 C 273.707031 280.933594 272.160156 279.390625 270.253906 279.390625 L 104.375 279.390625 C 102.46875 279.390625 100.917969 280.933594 100.917969 282.839844 C 100.917969 284.742188 102.46875 286.289062 104.375 286.289062 Z M 270.253906 286.289062 " fill-opacity="1" fill-rule="nonzero"/></g><path fill="#2d425a" d="M 132.023438 265.589844 C 133.929688 265.589844 135.476562 264.042969 135.476562 262.140625 C 135.476562 260.234375 133.929688 258.6875 132.023438 258.6875 L 125.109375 258.6875 C 123.203125 258.6875 121.652344 260.234375 121.652344 262.140625 C 121.652344 264.042969 123.203125 265.589844 125.109375 265.589844 Z M 132.023438 265.589844 " fill-opacity="1" fill-rule="nonzero"/><path fill="#2d425a" d="M 132.023438 244.886719 C 133.929688 244.886719 135.476562 243.34375 135.476562 241.4375 C 135.476562 239.535156 133.929688 237.988281 132.023438 237.988281 L 125.109375 237.988281 C 123.203125 237.988281 121.652344 239.535156 121.652344 241.4375 C 121.652344 243.34375 123.203125 244.886719 125.109375 244.886719 Z M 132.023438 244.886719 " fill-opacity="1" fill-rule="nonzero"/><path fill="#2d425a" d="M 132.023438 224.1875 C 133.929688 224.1875 135.476562 222.640625 135.476562 220.738281 C 135.476562 218.832031 133.929688 217.289062 132.023438 217.289062 L 125.109375 217.289062 C 123.203125 217.289062 121.652344 218.832031 121.652344 220.738281 C 121.652344 222.640625 123.203125 224.1875 125.109375 224.1875 Z M 132.023438 224.1875 " fill-opacity="1" fill-rule="nonzero"/><path fill="#2d425a" d="M 132.023438 203.488281 C 133.929688 203.488281 135.476562 201.941406 135.476562 200.039062 C 135.476562 198.132812 133.929688 196.585938 132.023438 196.585938 L 125.109375 196.585938 C 123.203125 196.585938 121.652344 198.132812 121.652344 200.039062 C 121.652344 201.941406 123.203125 203.488281 125.109375 203.488281 Z M 132.023438 203.488281 " fill-opacity="1" fill-rule="nonzero"/><path fill="#2d425a" d="M 132.023438 182.785156 C 133.929688 182.785156 135.476562 181.242188 135.476562 179.335938 C 135.476562 177.433594 133.929688 175.886719 132.023438 175.886719 L 125.109375 175.886719 C 123.203125 175.886719 121.652344 177.433594 121.652344 179.335938 C 121.652344 181.242188 123.203125 182.785156 125.109375 182.785156 Z M 132.023438 182.785156 " fill-opacity="1" fill-rule="nonzero"/><path fill="#2d425a" d="M 132.023438 162.085938 C 133.929688 162.085938 135.476562 160.542969 135.476562 158.636719 C 135.476562 156.730469 133.929688 155.1875 132.023438 155.1875 L 125.109375 155.1875 C 123.203125 155.1875 121.652344 156.730469 121.652344 158.636719 C 121.652344 160.542969 123.203125 162.085938 125.109375 162.085938 Z M 132.023438 162.085938 " fill-opacity="1" fill-rule="nonzero"/><path fill="#2d425a" d="M 159.667969 162.085938 C 161.574219 162.085938 163.125 160.542969 163.125 158.636719 C 163.125 156.730469 161.574219 155.1875 159.667969 155.1875 L 145.84375 155.1875 C 143.9375 155.1875 142.390625 156.730469 142.390625 158.636719 C 142.390625 160.542969 143.9375 162.085938 145.84375 162.085938 Z M 159.667969 162.085938 " fill-opacity="1" fill-rule="nonzero"/><path fill="#2d425a" d="M 159.667969 182.785156 C 161.574219 182.785156 163.125 181.242188 163.125 179.335938 C 163.125 177.433594 161.574219 175.886719 159.667969 175.886719 L 145.84375 175.886719 C 143.9375 175.886719 142.390625 177.433594 142.390625 179.335938 C 142.390625 181.242188 143.9375 182.785156 145.84375 182.785156 Z M 159.667969 182.785156 " fill-opacity="1" fill-rule="nonzero"/><path fill="#2d425a" d="M 159.667969 203.488281 C 161.574219 203.488281 163.125 201.941406 163.125 200.039062 C 163.125 198.132812 161.574219 196.585938 159.667969 196.585938 L 145.84375 196.585938 C 143.9375 196.585938 142.390625 198.132812 142.390625 200.039062 C 142.390625 201.941406 143.9375 203.488281 145.84375 203.488281 Z M 159.667969 203.488281 " fill-opacity="1" fill-rule="nonzero"/><path fill="#2d425a" d="M 159.667969 224.1875 C 161.574219 224.1875 163.125 222.640625 163.125 220.738281 C 163.125 218.832031 161.574219 217.289062 159.667969 217.289062 L 145.84375 217.289062 C 143.9375 217.289062 142.390625 218.832031 142.390625 220.738281 C 142.390625 222.640625 143.9375 224.1875 145.84375 224.1875 Z M 159.667969 224.1875 " fill-opacity="1" fill-rule="nonzero"/><path fill="#2d425a" d="M 159.667969 244.886719 C 161.574219 244.886719 163.125 243.34375 163.125 241.4375 C 163.125 239.535156 161.574219 237.988281 159.667969 237.988281 L 145.84375 237.988281 C 143.9375 237.988281 142.390625 239.535156 142.390625 241.4375 C 142.390625 243.34375 143.9375 244.886719 145.84375 244.886719 Z M 159.667969 244.886719 " fill-opacity="1" fill-rule="nonzero"/><path fill="#2d425a" d="M 159.667969 265.589844 C 161.574219 265.589844 163.125 264.042969 163.125 262.140625 C 163.125 260.234375 161.574219 258.6875 159.667969 258.6875 L 145.84375 258.6875 C 143.9375 258.6875 142.390625 260.234375 142.390625 262.140625 C 142.390625 264.042969 143.9375 265.589844 145.84375 265.589844 Z M 159.667969 265.589844 " fill-opacity="1" fill-rule="nonzero"/><path fill="#2d425a" d="M 249.519531 224.1875 C 251.425781 224.1875 252.972656 222.640625 252.972656 220.738281 C 252.972656 218.832031 251.425781 217.289062 249.519531 217.289062 L 235.695312 217.289062 C 233.789062 217.289062 232.238281 218.832031 232.238281 220.738281 C 232.238281 222.640625 233.789062 224.1875 235.695312 224.1875 Z M 249.519531 224.1875 " fill-opacity="1" fill-rule="nonzero"/><path fill="#2d425a" d="M 249.519531 244.886719 C 251.425781 244.886719 252.972656 243.34375 252.972656 241.4375 C 252.972656 239.535156 251.425781 237.988281 249.519531 237.988281 L 235.695312 237.988281 C 233.789062 237.988281 232.238281 239.535156 232.238281 241.4375 C 232.238281 243.34375 233.789062 244.886719 235.695312 244.886719 Z M 249.519531 244.886719 " fill-opacity="1" fill-rule="nonzero"/><path fill="#2d425a" d="M 249.519531 265.589844 C 251.425781 265.589844 252.972656 264.042969 252.972656 262.140625 C 252.972656 260.234375 251.425781 258.6875 249.519531 258.6875 L 235.695312 258.6875 C 233.789062 258.6875 232.238281 260.234375 232.238281 262.140625 C 232.238281 264.042969 233.789062 265.589844 235.695312 265.589844 Z M 249.519531 265.589844 " fill-opacity="1" fill-rule="nonzero"/><path fill="#2d425a" d="M 221.871094 203.488281 C 223.78125 203.488281 225.328125 201.941406 225.328125 200.039062 C 225.328125 198.132812 223.78125 196.585938 221.871094 196.585938 L 208.046875 196.585938 C 206.140625 196.585938 204.59375 198.132812 204.59375 200.039062 C 204.59375 201.941406 206.140625 203.488281 208.046875 203.488281 Z M 221.871094 203.488281 " fill-opacity="1" fill-rule="nonzero"/><path fill="#2d425a" d="M 221.871094 224.1875 C 223.78125 224.1875 225.328125 222.640625 225.328125 220.738281 C 225.328125 218.832031 223.78125 217.289062 221.871094 217.289062 L 208.046875 217.289062 C 206.140625 217.289062 204.59375 218.832031 204.59375 220.738281 C 204.59375 222.640625 206.140625 224.1875 208.046875 224.1875 Z M 221.871094 224.1875 " fill-opacity="1" fill-rule="nonzero"/><path fill="#2d425a" d="M 221.871094 244.886719 C 223.78125 244.886719 225.328125 243.34375 225.328125 241.4375 C 225.328125 239.535156 223.78125 237.988281 221.871094 237.988281 L 208.046875 237.988281 C 206.140625 237.988281 204.59375 239.535156 204.59375 241.4375 C 204.59375 243.34375 206.140625 244.886719 208.046875 244.886719 Z M 221.871094 244.886719 " fill-opacity="1" fill-rule="nonzero"/><path fill="#2d425a" d="M 221.871094 265.589844 C 223.78125 265.589844 225.328125 264.042969 225.328125 262.140625 C 225.328125 260.234375 223.78125 258.6875 221.871094 258.6875 L 208.046875 258.6875 C 206.140625 258.6875 204.59375 260.234375 204.59375 262.140625 C 204.59375 264.042969 206.140625 265.589844 208.046875 265.589844 Z M 221.871094 265.589844 " fill-opacity="1" fill-rule="nonzero"/><path fill="#2d425a" d="M 132.023438 141.386719 C 133.929688 141.386719 135.476562 139.839844 135.476562 137.9375 C 135.476562 136.03125 133.929688 134.484375 132.023438 134.484375 L 125.109375 134.484375 C 123.203125 134.484375 121.652344 136.03125 121.652344 137.9375 C 121.652344 139.839844 123.203125 141.386719 125.109375 141.386719 Z M 132.023438 141.386719 " fill-opacity="1" fill-rule="nonzero"/><path fill="#2d425a" d="M 180.402344 265.589844 C 182.308594 265.589844 183.859375 264.042969 183.859375 262.140625 C 183.859375 260.234375 182.308594 258.6875 180.402344 258.6875 L 173.492188 258.6875 C 171.582031 258.6875 170.035156 260.234375 170.035156 262.140625 C 170.035156 264.042969 171.582031 265.589844 173.492188 265.589844 Z M 180.402344 265.589844 " fill-opacity="1" fill-rule="nonzero"/><path fill="#2d425a" d="M 180.402344 244.886719 C 182.308594 244.886719 183.859375 243.34375 183.859375 241.4375 C 183.859375 239.535156 182.308594 237.988281 180.402344 237.988281 L 173.492188 237.988281 C 171.582031 237.988281 170.035156 239.535156 170.035156 241.4375 C 170.035156 243.34375 171.582031 244.886719 173.492188 244.886719 Z M 180.402344 244.886719 " fill-opacity="1" fill-rule="nonzero"/><path fill="#2d425a" d="M 180.402344 224.1875 C 182.308594 224.1875 183.859375 222.640625 183.859375 220.738281 C 183.859375 218.832031 182.308594 217.289062 180.402344 217.289062 L 173.492188 217.289062 C 171.582031 217.289062 170.035156 218.832031 170.035156 220.738281 C 170.035156 222.640625 171.582031 224.1875 173.492188 224.1875 Z M 180.402344 224.1875 " fill-opacity="1" fill-rule="nonzero"/><path fill="#2d425a" d="M 180.402344 203.488281 C 182.308594 203.488281 183.859375 201.941406 183.859375 200.039062 C 183.859375 198.132812 182.308594 196.585938 180.402344 196.585938 L 173.492188 196.585938 C 171.582031 196.585938 170.035156 198.132812 170.035156 200.039062 C 170.035156 201.941406 171.582031 203.488281 173.492188 203.488281 Z M 180.402344 203.488281 " fill-opacity="1" fill-rule="nonzero"/><path fill="#2d425a" d="M 180.402344 182.785156 C 182.308594 182.785156 183.859375 181.242188 183.859375 179.335938 C 183.859375 177.433594 182.308594 175.886719 180.402344 175.886719 L 173.492188 175.886719 C 171.582031 175.886719 170.035156 177.433594 170.035156 179.335938 C 170.035156 181.242188 171.582031 182.785156 173.492188 182.785156 Z M 180.402344 182.785156 " fill-opacity="1" fill-rule="nonzero"/><path fill="#2d425a" d="M 180.402344 162.085938 C 182.308594 162.085938 183.859375 160.542969 183.859375 158.636719 C 183.859375 156.730469 182.308594 155.1875 180.402344 155.1875 L 173.492188 155.1875 C 171.582031 155.1875 170.035156 156.730469 170.035156 158.636719 C 170.035156 160.542969 171.582031 162.085938 173.492188 162.085938 Z M 180.402344 162.085938 " fill-opacity="1" fill-rule="nonzero"/><path fill="#2d425a" d="M 197.679688 141.566406 C 197.679688 140.34375 197.035156 139.195312 195.953125 138.582031 L 113.015625 90.175781 C 110.710938 88.84375 107.832031 90.496094 107.832031 93.15625 L 107.832031 286.289062 L 114.742188 286.289062 L 114.742188 99.121094 L 190.769531 143.46875 L 190.769531 286.289062 L 197.679688 286.289062 Z M 197.679688 141.566406 " fill-opacity="1" fill-rule="nonzero"/><path fill="#2d425a" d="M 265.070312 200.683594 C 266.148438 201.296875 266.796875 202.445312 266.796875 203.667969 L 266.796875 286.289062 L 259.886719 286.289062 L 259.886719 205.570312 L 190.769531 165.25 L 190.769531 157.308594 Z M 265.070312 200.683594 " fill-opacity="1" fill-rule="nonzero"/></svg>