<svg xmlns="http://www.w3.org/2000/svg" xmlns:xlink="http://www.w3.org/1999/xlink" width="500" zoomAndPan="magnify" viewBox="0 0 375 374.999991" height="500" preserveAspectRatio="xMidYMid meet" version="1.0"><defs><clipPath id="id1"><path d="M 59.734375 82.507812 L 315.484375 82.507812 L 315.484375 309 L 59.734375 309 Z M 59.734375 82.507812 " clip-rule="nonzero"/></clipPath></defs><path fill="#ffffff" d="M 351.675781 58.050781 L 351.675781 316.949219 C 351.675781 336.148438 336.148438 351.675781 316.949219 351.675781 L 58.050781 351.675781 C 38.851562 351.675781 23.324219 336.148438 23.324219 316.949219 L 23.324219 58.050781 C 23.324219 38.851562 38.851562 23.324219 58.050781 23.324219 L 316.949219 23.324219 C 336.148438 23.324219 351.675781 38.851562 351.675781 58.050781 " fill-opacity="1" fill-rule="nonzero"/><path fill="#c2912b" d="M 53.476562 312.523438 C 48.503906 312.523438 44.476562 316.554688 44.476562 321.523438 C 44.476562 326.496094 48.503906 330.523438 53.476562 330.523438 C 58.445312 330.523438 62.476562 326.496094 62.476562 321.523438 C 62.476562 316.554688 58.445312 312.523438 53.476562 312.523438 M 53.476562 44.476562 C 48.503906 44.476562 44.476562 48.503906 44.476562 53.476562 C 44.476562 58.445312 48.503906 62.476562 53.476562 62.476562 C 58.445312 62.476562 62.476562 58.445312 62.476562 53.476562 C 62.476562 48.503906 58.445312 44.476562 53.476562 44.476562 M 321.523438 44.476562 C 316.554688 44.476562 312.523438 48.503906 312.523438 53.476562 C 312.523438 58.445312 316.554688 62.476562 321.523438 62.476562 C 326.496094 62.476562 330.523438 58.445312 330.523438 53.476562 C 330.523438 48.503906 326.496094 44.476562 321.523438 44.476562 M 321.523438 312.523438 C 316.554688 312.523438 312.523438 316.554688 312.523438 321.523438 C 312.523438 326.496094 316.554688 330.523438 321.523438 330.523438 C 326.496094 330.523438 330.523438 326.496094 330.523438 321.523438 C 330.523438 316.554688 326.496094 312.523438 321.523438 312.523438 " fill-opacity="1" fill-rule="nonzero"/><path fill="#2d425a" d="M 375 62.476562 L 375 33.375 C 368.101562 30.75 361.125 26.25 354.898438 20.101562 C 348.75 13.875 344.25 6.898438 341.625 0 L 33.375 0 C 30.75 6.898438 26.25 13.875 20.101562 20.101562 C 13.875 26.25 6.898438 30.75 0 33.375 L 0 341.625 C 1.726562 342.300781 3.449219 343.050781 5.175781 343.949219 C 5.625 344.175781 6 344.398438 6.449219 344.625 C 6.75 344.773438 7.050781 344.925781 7.351562 345.148438 C 7.425781 345.148438 7.5 345.226562 7.574219 345.300781 C 7.800781 345.375 7.949219 345.523438 8.175781 345.675781 C 10.351562 347.023438 12.523438 348.523438 14.699219 350.175781 C 15.074219 350.476562 15.449219 350.773438 15.824219 351.148438 C 16.125 351.375 16.351562 351.601562 16.574219 351.824219 C 17.324219 352.5 18.074219 353.175781 18.824219 353.925781 C 19.199219 354.300781 19.574219 354.675781 20.023438 355.050781 C 20.398438 355.425781 20.773438 355.800781 21.148438 356.25 C 21.824219 357 22.574219 357.75 23.25 358.5 C 23.476562 358.800781 23.699219 359.023438 23.925781 359.324219 L 24.824219 360.449219 C 25.050781 360.675781 25.199219 360.976562 25.425781 361.199219 C 25.800781 361.648438 26.175781 362.175781 26.550781 362.625 C 27 363.226562 27.375 363.824219 27.75 364.351562 C 28.875 366.074219 29.925781 367.800781 30.898438 369.601562 C 31.050781 369.898438 31.199219 370.125 31.273438 370.425781 L 31.5 370.875 C 31.648438 371.175781 31.800781 371.476562 31.875 371.699219 C 32.398438 372.824219 32.925781 373.949219 33.300781 375.148438 L 341.550781 375.148438 C 344.175781 368.25 348.675781 361.273438 354.824219 355.050781 C 357.148438 352.726562 359.550781 350.625 362.101562 348.824219 C 363.375 347.925781 364.648438 347.023438 365.925781 346.273438 C 366.75 345.75 367.648438 345.226562 368.476562 344.773438 C 369.300781 344.324219 370.199219 343.875 371.023438 343.425781 C 372.300781 342.824219 373.648438 342.226562 374.925781 341.773438 L 375 62.476562 M 351.675781 316.949219 C 351.675781 336.148438 336.148438 351.675781 316.949219 351.675781 L 58.050781 351.675781 C 38.851562 351.675781 23.324219 336.148438 23.324219 316.949219 L 23.324219 58.050781 C 23.324219 38.851562 38.851562 23.324219 58.050781 23.324219 L 316.949219 23.324219 C 336.148438 23.324219 351.675781 38.851562 351.675781 58.050781 L 351.675781 316.949219 " fill-opacity="1" fill-rule="nonzero"/><path fill="#2d425a" d="M 282.332031 188.226562 L 213.066406 188.226562 C 208.328125 188.226562 208.328125 195.335938 213.066406 195.335938 L 282.332031 195.335938 C 287.066406 195.335938 287.066406 188.226562 282.332031 188.226562 Z M 282.332031 188.226562 " fill-opacity="1" fill-rule="nonzero"/><path fill="#2d425a" d="M 282.332031 158.601562 L 253.464844 158.601562 C 248.726562 158.601562 248.726562 165.710938 253.464844 165.710938 L 282.332031 165.710938 C 287.066406 165.710938 287.066406 158.601562 282.332031 158.601562 Z M 282.332031 158.601562 " fill-opacity="1" fill-rule="nonzero"/><path fill="#2d425a" d="M 213.066406 165.710938 L 235.5625 165.710938 C 240.296875 165.710938 240.296875 158.601562 235.5625 158.601562 L 213.066406 158.601562 C 208.328125 158.601562 208.328125 165.710938 213.066406 165.710938 Z M 213.066406 165.710938 " fill-opacity="1" fill-rule="nonzero"/><path fill="#2d425a" d="M 282.332031 123.054688 L 271.296875 123.054688 C 266.5625 123.054688 266.5625 130.164062 271.296875 130.164062 L 282.332031 130.164062 C 287.066406 130.164062 287.066406 123.054688 282.332031 123.054688 Z M 282.332031 123.054688 " fill-opacity="1" fill-rule="nonzero"/><path fill="#2d425a" d="M 213.066406 130.164062 L 254.277344 130.164062 C 259.011719 130.164062 259.011719 123.054688 254.277344 123.054688 L 213.066406 123.054688 C 208.328125 123.054688 208.328125 130.164062 213.066406 130.164062 Z M 213.066406 130.164062 " fill-opacity="1" fill-rule="nonzero"/><path fill="#2d425a" d="M 250.953125 217.847656 L 238.480469 217.847656 C 233.746094 217.847656 233.746094 224.957031 238.480469 224.957031 L 250.953125 224.957031 C 255.691406 224.957031 255.691406 217.847656 250.953125 217.847656 Z M 250.953125 217.847656 " fill-opacity="1" fill-rule="nonzero"/><path fill="#2d425a" d="M 221.726562 217.847656 L 213.066406 217.847656 C 208.328125 217.847656 208.328125 224.957031 213.066406 224.957031 L 221.726562 224.957031 C 226.460938 224.957031 226.460938 217.847656 221.726562 217.847656 Z M 221.726562 217.847656 " fill-opacity="1" fill-rule="nonzero"/><path fill="#2d425a" d="M 81.648438 121.722656 C 79.6875 121.722656 78.097656 123.316406 78.097656 125.277344 L 78.097656 182.425781 C 78.097656 187.164062 85.203125 187.164062 85.203125 182.425781 L 85.203125 125.277344 C 85.203125 123.316406 83.609375 121.722656 81.648438 121.722656 Z M 81.648438 121.722656 " fill-opacity="1" fill-rule="nonzero"/><path fill="#2d425a" d="M 82.242188 105.582031 C 80.277344 105.582031 78.691406 107.171875 78.691406 109.136719 L 78.691406 113.019531 C 78.691406 117.761719 85.792969 117.761719 85.792969 113.019531 L 85.792969 109.136719 C 85.792969 107.171875 84.203125 105.582031 82.242188 105.582031 Z M 82.242188 105.582031 " fill-opacity="1" fill-rule="nonzero"/><path fill="#2d425a" d="M 200.949219 169.222656 L 186.410156 139.949219 C 190.464844 138.933594 189.742188 132.960938 185.5625 132.945312 L 159.871094 132.945312 C 158.425781 130.414062 155.742188 128.855469 152.832031 128.851562 L 139.503906 128.851562 C 136.597656 128.855469 133.910156 130.414062 132.46875 132.945312 L 106.539062 132.945312 C 102.222656 132.957031 101.65625 139.210938 105.902344 139.996094 L 91.382812 169.222656 C 89.863281 169.660156 88.8125 171.054688 88.8125 172.640625 C 88.8125 184.1875 98.808594 193.578125 111.097656 193.578125 C 123.386719 193.578125 133.382812 184.1875 133.382812 172.640625 C 133.378906 171.054688 132.332031 169.660156 130.8125 169.222656 L 116.324219 140.054688 L 132.003906 140.054688 C 133.257812 143.09375 136.21875 145.082031 139.503906 145.085938 L 142.613281 145.085938 L 142.613281 188.917969 C 135.339844 190.148438 129.4375 195.089844 127.5625 201.511719 C 122.675781 202.167969 119.03125 206.339844 119.023438 211.269531 L 119.023438 214.757812 C 119.023438 216.71875 120.613281 218.3125 122.574219 218.3125 L 169.761719 218.3125 C 171.722656 218.3125 173.3125 216.71875 173.3125 214.757812 L 173.3125 211.269531 C 173.304688 206.339844 169.65625 202.167969 164.773438 201.511719 C 162.902344 195.089844 156.996094 190.148438 149.722656 188.917969 L 149.722656 145.085938 L 152.832031 145.085938 C 156.121094 145.078125 159.078125 143.09375 160.332031 140.054688 L 176.015625 140.054688 L 161.527344 169.222656 C 160.003906 169.660156 158.953125 171.054688 158.953125 172.640625 C 158.953125 184.183594 168.949219 193.574219 181.238281 193.574219 C 193.523438 193.574219 203.519531 184.1875 203.519531 172.640625 C 203.519531 171.054688 202.46875 169.660156 200.949219 169.222656 Z M 111.097656 186.464844 C 104.074219 186.464844 98.152344 182.101562 96.425781 176.191406 L 125.769531 176.191406 C 124.042969 182.101562 118.121094 186.46875 111.097656 186.46875 Z M 122.808594 169.082031 L 99.386719 169.082031 L 111.097656 145.5 Z M 163.464844 208.523438 C 164.953125 208.527344 166.167969 209.714844 166.207031 211.203125 L 126.128906 211.203125 C 126.167969 209.714844 127.382812 208.527344 128.867188 208.527344 Z M 157.050781 201.414062 L 135.28125 201.414062 C 137.269531 198.039062 141.421875 195.722656 146.167969 195.722656 C 150.914062 195.722656 155.066406 198.039062 157.050781 201.417969 Z M 152.832031 137.976562 L 139.503906 137.976562 C 138.949219 137.976562 138.5 137.523438 138.5 136.964844 C 138.5 136.410156 138.949219 135.960938 139.503906 135.960938 L 152.832031 135.960938 C 153.386719 135.960938 153.835938 136.410156 153.835938 136.964844 C 153.835938 137.523438 153.386719 137.976562 152.832031 137.976562 Z M 181.238281 145.507812 L 192.945312 169.085938 L 169.527344 169.085938 Z M 181.238281 186.464844 C 174.214844 186.464844 168.289062 182.101562 166.5625 176.195312 L 195.910156 176.195312 C 194.183594 182.101562 188.257812 186.46875 181.238281 186.46875 Z M 181.238281 186.464844 " fill-opacity="1" fill-rule="nonzero"/><g clip-path="url(#id1)"><path fill="#2d425a" d="M 308.378906 154.917969 L 308.378906 237.78125 C 308.378906 248.90625 299.367188 257.925781 288.25 257.925781 L 163.285156 257.925781 C 150.136719 257.925781 140.648438 263.199219 135.089844 273.589844 C 130.632812 281.914062 129.710938 291.796875 129.101562 298.332031 C 129.042969 299 128.976562 299.65625 128.914062 300.28125 C 123.109375 297.027344 111.871094 288.203125 108.210938 267.46875 C 107.171875 261.886719 102.273438 257.863281 96.601562 257.925781 L 86.964844 257.925781 C 75.851562 257.925781 66.835938 248.90625 66.835938 237.78125 L 66.835938 109.878906 C 66.835938 98.753906 75.851562 89.738281 86.964844 89.738281 L 288.25 89.738281 C 299.367188 89.738281 308.378906 98.753906 308.378906 109.878906 L 308.378906 131.21875 C 308.378906 133.183594 309.96875 134.773438 311.929688 134.773438 C 313.890625 134.773438 315.484375 133.183594 315.484375 131.21875 L 315.484375 109.878906 C 315.484375 94.828125 303.292969 82.628906 288.25 82.628906 L 86.964844 82.628906 C 71.925781 82.628906 59.734375 94.828125 59.734375 109.878906 L 59.734375 237.78125 C 59.734375 252.832031 71.925781 265.035156 86.964844 265.035156 L 96.601562 265.035156 C 98.816406 265 100.75 266.539062 101.214844 268.707031 C 106.445312 298.320312 125.792969 307.015625 129.644531 308.472656 C 130.199219 308.796875 130.835938 308.972656 131.484375 308.972656 C 131.664062 308.972656 131.847656 308.957031 132.03125 308.933594 C 132.9375 308.796875 134.558594 308.214844 135.230469 305.820312 C 135.726562 303.574219 136.042969 301.289062 136.171875 298.996094 C 137.710938 282.566406 141.195312 265.035156 163.289062 265.035156 L 288.25 265.035156 C 303.292969 265.035156 315.484375 252.835938 315.484375 237.785156 L 315.484375 154.917969 C 315.484375 152.957031 313.890625 151.363281 311.929688 151.363281 C 309.96875 151.363281 308.378906 152.957031 308.378906 154.917969 Z M 308.378906 154.917969 " fill-opacity="1" fill-rule="nonzero"/></g></svg>