<?xml version="1.0" encoding="utf-8"?>
<svg viewBox="184.32 229.425 43.702 45.756" xmlns="http://www.w3.org/2000/svg">
  <defs>
    <clipPath id="clippath0" transform="">
      <path d="M 0 0 L 255.118 0 L 255.118 141.732 L 0 141.732 Z" style="fill: none; clip-rule: nonzero;"/>
    </clipPath>
  </defs>
  <g transform="matrix(1, 0, 0, -1, 15.098338, 289.747106)">
    <g transform="">
      <path d="M 0 0 L 255.118 0 L 255.118 141.732 L 0 141.732 Z" style="fill: none;"/>
    </g>
    <g style="clip-path: url(#clippath0);">
      <g transform="">
        <path d="M 186.431 42.138 C 185.936 41.648 185.797 39.734 186.196 38.759 C 186.327 38.442 186.482 38.126 186.684 37.852 C 186.879 37.584 187.141 37.362 187.388 37.137 C 187.634 36.914 187.871 36.668 188.254 36.539 C 188.204 36.67 188.18 36.743 188.15 36.812 C 187.957 37.251 187.757 37.686 187.569 38.126 C 187.359 38.619 187.153 39.116 186.951 39.613 C 186.703 40.22 186.515 40.842 186.466 41.499 C 186.45 41.708 186.443 41.92 186.431 42.138 M 184.923 58.643 L 185.632 58.528 C 186.702 58.355 187.729 58.041 188.677 57.507 C 189.526 57.028 190.298 56.444 190.958 55.718 C 191.675 54.928 192.272 54.058 192.671 53.069 C 192.974 52.311 193.21 51.529 193.293 50.71 C 193.318 50.452 193.349 50.194 193.355 49.935 C 193.359 49.768 193.418 49.647 193.535 49.532 C 194.056 49.018 194.57 48.497 195.084 47.979 C 195.192 47.87 195.292 47.754 195.418 47.618 C 194.748 46.864 193.989 46.215 193.292 45.46 C 192.575 46.188 191.882 46.89 191.17 47.611 C 191.348 47.808 191.499 47.992 191.668 48.156 C 191.949 48.432 192.248 48.69 192.531 48.964 C 192.731 49.158 192.925 49.359 193.105 49.572 C 193.158 49.634 193.184 49.75 193.171 49.833 C 193.096 50.327 193.028 50.823 192.917 51.309 C 192.563 52.842 191.754 54.123 190.66 55.227 C 190.111 55.783 189.488 56.261 188.797 56.623 C 187.831 57.129 186.812 57.486 185.716 57.615 C 184.224 57.788 182.786 57.6 181.393 57.032 C 180.501 56.67 179.711 56.159 178.982 55.533 C 178.444 55.072 178.001 54.532 177.588 53.966 C 177.229 53.474 177.017 52.904 176.844 52.32 C 176.541 51.294 176.386 50.253 176.437 49.185 C 176.491 48.026 176.787 46.929 177.264 45.874 C 177.638 45.05 178.072 44.26 178.515 43.473 C 178.839 42.895 179.153 42.311 179.488 41.741 C 180.029 40.822 180.576 39.909 181.135 39.001 C 181.531 38.355 181.946 37.719 182.361 37.084 C 183.094 35.958 183.834 34.835 184.569 33.71 C 185.443 32.375 186.337 31.053 187.106 29.652 C 187.694 28.582 188.069 27.441 188.213 26.223 C 188.356 25.02 188.172 23.87 187.696 22.762 C 187.564 22.454 187.414 22.154 187.269 21.853 C 187.245 21.803 187.201 21.764 187.132 21.676 C 187.046 22.047 186.974 22.37 186.897 22.693 C 186.67 23.646 186.468 24.607 186.071 25.507 C 185.82 26.078 185.53 26.632 185.258 27.195 C 184.668 28.41 183.886 29.506 183.133 30.621 C 182.579 31.44 181.999 32.241 181.43 33.051 C 180.929 33.766 180.429 34.481 179.907 35.227 C 179.777 35.058 179.673 34.903 179.549 34.764 C 179.275 34.453 179.017 34.124 178.708 33.855 C 178.181 33.397 177.566 33.246 176.878 33.455 C 176.531 33.562 176.23 33.728 175.969 33.986 C 175.611 34.336 175.262 34.694 174.987 35.114 C 174.965 35.146 174.942 35.176 174.9 35.235 C 174.714 35.045 174.54 34.884 174.388 34.705 C 174.301 34.601 174.332 34.473 174.401 34.355 C 175.006 33.319 175.865 32.648 177.072 32.452 C 177.896 32.317 178.717 32.156 179.537 32.007 C 179.582 31.999 179.623 31.978 179.665 31.963 C 179.603 31.751 178.595 30.529 178.027 29.971 C 177.495 30.069 176.949 30.17 176.372 30.277 C 176.347 30.164 176.32 30.066 176.306 29.966 C 176.094 28.415 176.289 26.916 176.895 25.472 C 177.209 24.723 177.581 24.005 178.108 23.385 C 178.625 22.776 179.178 22.209 179.845 21.749 C 180.516 21.289 181.21 20.875 181.995 20.663 C 183.247 20.328 184.51 20.282 185.789 20.575 C 186.726 20.789 187.55 21.208 188.334 21.745 C 188.856 22.103 189.298 22.537 189.706 23.011 C 190.631 24.085 191.248 25.315 191.455 26.716 C 191.621 27.846 191.602 28.981 191.235 30.087 C 191.168 30.285 191.074 30.454 190.906 30.58 C 190.421 30.943 189.944 31.316 189.448 31.663 C 188.51 32.317 187.508 32.871 186.535 33.47 C 186.127 33.72 185.717 33.981 185.351 34.288 C 184.786 34.759 184.307 35.307 184.072 36.032 C 183.919 36.501 183.911 36.977 183.956 37.457 C 184.033 38.282 184.195 39.089 184.526 39.855 C 184.944 40.821 185.51 41.699 186.147 42.533 C 186.409 42.876 186.66 43.219 186.83 43.626 C 186.962 43.941 187.164 44.231 187.356 44.517 C 187.78 45.15 188.366 45.612 188.98 46.039 C 189.103 45.958 189.118 45.859 189.052 45.758 C 188.926 45.562 188.916 45.345 188.886 45.125 C 188.781 44.352 188.837 43.585 189.005 42.832 C 189.116 42.337 189.282 41.848 189.478 41.379 C 189.826 40.547 190.208 39.728 190.59 38.909 C 190.816 38.423 191.074 37.949 191.312 37.468 C 191.774 36.528 192.252 35.595 192.686 34.641 C 193.125 33.682 193.61 32.738 193.9 31.72 C 194.313 30.265 194.553 28.793 194.309 27.272 C 194.103 25.998 193.646 24.837 192.888 23.785 C 192.446 23.17 191.941 22.614 191.374 22.13 C 190.682 21.54 189.952 20.983 189.105 20.613 C 188.665 20.42 188.227 20.223 187.789 20.027 C 187.757 20.013 187.727 19.992 187.66 19.956 C 187.772 19.882 187.855 19.822 187.943 19.773 C 188.487 19.469 189.079 19.31 189.683 19.186 C 190.338 19.051 191.001 19.018 191.664 19.073 C 193.046 19.188 194.311 19.622 195.406 20.495 C 195.691 20.721 195.988 20.938 196.246 21.194 C 196.891 21.837 197.429 22.569 197.793 23.402 C 198.654 25.374 198.778 27.376 197.947 29.402 C 197.657 30.111 197.254 30.751 196.846 31.391 C 196.377 32.128 195.881 32.847 195.406 33.58 C 194.927 34.321 194.462 35.073 193.987 35.818 C 193.647 36.352 193.272 36.868 192.964 37.422 C 192.459 38.333 191.863 39.21 191.624 40.248 C 191.323 41.551 191.525 42.769 192.314 43.864 C 192.584 44.237 192.889 44.583 193.187 44.935 C 193.278 45.04 193.399 45.118 193.511 45.212 C 193.511 44.787 193.502 44.386 193.513 43.985 C 193.533 43.356 193.696 42.757 193.895 42.162 C 194.172 41.332 194.61 40.589 195.077 39.86 C 195.544 39.133 196.012 38.407 196.481 37.68 C 196.521 37.617 196.569 37.558 196.623 37.485 C 197.704 37.76 198.719 38.182 199.703 38.661 C 199.705 38.702 199.714 38.726 199.706 38.739 C 199.425 39.15 199.159 39.574 198.854 39.968 C 198.536 40.377 198.195 40.77 197.838 41.145 C 197.506 41.492 197.137 41.802 196.789 42.134 C 196.686 42.232 196.6 42.344 196.496 42.461 C 196.575 42.569 196.625 42.663 196.699 42.734 C 197.254 43.271 197.694 43.904 198.179 44.499 C 198.646 45.072 199.131 45.639 199.674 46.137 C 200.384 46.785 201.224 47.208 202.224 47.188 C 202.86 47.175 203.451 46.971 204.023 46.71 C 204.721 46.392 205.407 46.047 206.107 45.73 C 206.517 45.543 206.935 45.368 207.36 45.22 C 207.946 45.015 208.557 44.93 209.175 44.957 C 210.019 44.991 210.774 45.264 211.38 45.881 C 211.582 46.086 211.792 46.284 212 46.484 C 212.038 46.52 212.086 46.544 212.14 46.56 C 211.859 46.075 211.528 45.633 211.129 45.244 C 210.791 44.915 210.464 44.574 210.099 44.279 C 209.591 43.867 209.067 43.476 208.526 43.112 C 207.953 42.73 207.3 42.58 206.609 42.581 C 205.805 42.584 205.049 42.794 204.325 43.118 C 203.369 43.544 202.431 44.012 201.473 44.433 C 200.864 44.699 200.221 44.874 199.542 44.837 C 199.37 44.827 199.202 44.81 199.009 44.699 C 199.083 44.599 199.139 44.504 199.214 44.429 C 199.483 44.17 199.772 43.927 200.032 43.657 C 200.337 43.338 200.619 42.996 200.914 42.667 C 201.512 41.998 202.001 41.252 202.471 40.49 C 202.491 40.458 202.513 40.426 202.534 40.393 C 202.681 40.182 202.757 40.161 202.993 40.257 C 203.671 40.53 204.366 40.75 205.081 40.911 C 206.605 41.255 208.131 41.275 209.658 40.943 C 210.38 40.786 211.044 40.485 211.683 40.123 C 211.941 39.977 212.19 39.811 212.44 39.65 C 212.493 39.617 212.537 39.568 212.625 39.49 C 212.42 39.463 212.263 39.433 212.107 39.422 C 210.769 39.336 209.464 39.072 208.166 38.744 C 206.949 38.439 205.799 37.962 204.649 37.476 C 203.778 37.11 202.966 36.632 202.131 36.201 C 201.644 35.951 201.154 35.704 200.654 35.48 C 200.026 35.197 199.383 34.941 198.748 34.672 C 198.697 34.65 198.649 34.619 198.573 34.576 C 198.619 34.494 198.656 34.419 198.7 34.349 C 199.001 33.858 199.319 33.376 199.604 32.876 C 199.88 32.392 200.154 31.902 200.372 31.391 C 200.747 30.508 201.059 29.599 201.186 28.641 C 201.385 27.153 201.225 25.715 200.623 24.326 C 199.855 22.55 198.618 21.177 197.067 20.062 C 195.882 19.21 194.572 18.627 193.153 18.297 C 191.778 17.979 190.405 17.989 189.049 18.394 C 188.356 18.602 187.702 18.906 187.083 19.281 C 186.905 19.389 186.723 19.489 186.494 19.621 C 186.239 19.579 185.919 19.521 185.598 19.473 C 184.05 19.242 182.55 19.407 181.105 20.016 C 180.365 20.327 179.664 20.707 179.052 21.228 C 178.416 21.77 177.82 22.349 177.355 23.061 C 176.979 23.633 176.614 24.209 176.36 24.843 C 175.905 25.985 175.621 27.169 175.601 28.407 C 175.591 29.014 175.609 29.619 175.716 30.219 C 175.724 30.265 175.717 30.313 175.717 30.384 C 174.356 30.628 173.004 30.613 171.641 30.303 C 171.555 30.388 171.446 30.477 171.591 30.599 C 171.977 30.929 172.334 31.304 172.811 31.502 C 173.056 31.604 173.327 31.643 173.586 31.713 C 173.651 31.731 173.714 31.759 173.829 31.8 C 173.649 31.978 173.506 32.115 173.367 32.255 C 173.193 32.433 173.008 32.604 172.85 32.796 C 172.625 33.071 172.602 33.379 172.789 33.682 C 172.911 33.878 173.048 34.065 173.194 34.242 C 173.91 35.111 174.628 35.974 175.347 36.839 C 175.415 36.92 175.488 36.999 175.563 37.071 C 175.839 37.337 176.179 37.348 176.463 37.085 C 176.574 36.982 176.662 36.851 176.744 36.722 C 176.986 36.337 177.276 35.992 177.627 35.704 C 178.055 35.354 178.544 35.234 179.087 35.346 C 179.287 35.388 179.468 35.468 179.629 35.641 C 179.442 35.911 179.251 36.175 179.073 36.446 C 178.651 37.088 178.223 37.726 177.819 38.38 C 177.262 39.289 176.705 40.2 176.276 41.178 C 175.929 41.97 175.629 42.781 175.404 43.619 C 174.862 45.627 174.753 47.657 175.069 49.712 C 175.213 50.646 175.421 51.566 175.72 52.461 C 176.077 53.54 176.633 54.505 177.365 55.38 C 178.235 56.417 179.283 57.21 180.498 57.782 C 181.407 58.208 182.369 58.478 183.373 58.577 C 183.487 58.588 183.598 58.62 183.71 58.643 Z" style="fill: rgb(45, 66, 90); fill-opacity: 1;"/>
        <path d="M 180.649 58.643 C 180.099 58.439 179.585 58.166 179.1 57.838 C 178.962 57.745 178.817 57.734 178.661 57.734 C 176.716 57.735 174.772 57.735 172.828 57.735 L 172.464 57.735 C 172.454 57.645 172.443 57.572 172.439 57.499 C 172.436 57.412 172.438 57.325 172.438 57.239 C 172.438 49.789 172.438 42.339 172.441 34.889 C 172.441 34.631 172.394 34.413 172.247 34.188 C 171.811 33.517 171.873 32.858 172.402 32.164 C 172.129 31.963 171.855 31.763 171.532 31.527 L 171.532 31.903 L 171.532 52.897 C 171.532 54.697 171.532 56.497 171.532 58.297 C 171.531 58.412 171.526 58.527 171.522 58.643 Z" style="fill: rgb(45, 66, 90); fill-opacity: 1;"/>
        <path d="M 198.325 58.643 C 198.409 58.625 198.492 58.596 198.576 58.591 C 203.51 58.269 208.131 54.941 209.877 49.875 C 209.955 49.649 210.022 49.42 210.113 49.135 C 210.026 49.197 209.982 49.221 209.947 49.256 C 209.836 49.361 209.732 49.474 209.62 49.579 C 209.041 50.119 208.491 50.679 208.208 51.444 C 206.333 54.736 203.541 56.771 199.831 57.535 C 199.066 57.693 198.288 57.739 197.507 57.738 C 195.004 57.732 192.502 57.738 190.001 57.733 C 189.789 57.732 189.618 57.793 189.435 57.895 C 188.961 58.161 188.47 58.396 187.985 58.643 Z" style="fill: rgb(45, 66, 90); fill-opacity: 1;"/>
        <path d="M 209.687 17.146 L 209.687 38.372 C 209.981 38.427 210.251 38.477 210.505 38.526 C 210.533 38.514 210.543 38.512 210.549 38.506 C 210.555 38.5 210.563 38.49 210.563 38.482 C 210.569 31.148 210.574 23.813 210.579 16.479 C 210.579 16.412 210.571 16.348 210.564 16.247 L 210.189 16.247 L 183.765 16.247 C 183.341 16.247 182.918 16.244 182.494 16.248 C 177.581 16.293 173.203 19.685 171.929 24.434 C 171.666 25.416 171.541 26.414 171.534 27.429 C 171.529 28.036 171.533 28.642 171.533 29.248 L 171.533 29.555 C 171.827 29.617 172.104 29.676 172.416 29.741 C 172.425 29.636 172.437 29.554 172.438 29.475 C 172.439 28.771 172.438 28.068 172.439 27.366 C 172.446 22.611 175.667 18.525 180.293 17.413 C 181.034 17.235 181.788 17.145 182.551 17.148 C 183.351 17.149 184.149 17.146 184.948 17.146 L 209.236 17.146 Z" style="fill: rgb(45, 66, 90); fill-opacity: 1;"/>
        <path d="M 223.395 -7.362 C 223.423 -7.34 223.449 -7.318 223.477 -7.297 C 223.418 -7.163 223.373 -7.02 223.296 -6.899 C 223.239 -6.807 223.108 -6.827 223.022 -6.913 C 222.935 -6.999 222.977 -7.074 223.05 -7.13 C 223.161 -7.213 223.28 -7.285 223.395 -7.362 M 223.742 -7.938 C 223.654 -8.033 223.584 -8.109 223.505 -8.194 C 223.141 -8.114 222.924 -7.795 222.59 -7.634 C 222.531 -7.722 222.479 -7.801 222.425 -7.877 C 222.32 -8.027 222.19 -8.116 221.992 -8.11 C 221.616 -8.101 221.24 -8.11 220.865 -8.106 C 220.557 -8.103 220.429 -7.999 220.352 -7.707 C 220.328 -7.616 220.303 -7.525 220.261 -7.382 C 220.118 -7.499 219.989 -7.582 219.89 -7.691 C 219.612 -7.998 219.28 -8.117 218.864 -8.113 C 217.41 -8.098 215.957 -8.098 214.503 -8.113 C 213.966 -8.118 213.755 -7.848 213.711 -7.433 C 213.654 -6.888 213.603 -6.342 213.539 -5.799 C 213.508 -5.533 213.582 -5.307 213.764 -5.071 C 213.793 -5.355 213.82 -5.606 213.842 -5.859 C 213.867 -6.146 213.887 -6.434 213.912 -6.721 C 213.918 -6.798 213.931 -6.874 213.947 -6.95 C 214.027 -7.338 214.166 -7.458 214.556 -7.458 C 216.126 -7.459 217.694 -7.461 219.264 -7.453 C 219.451 -7.453 219.643 -7.403 219.826 -7.352 C 219.926 -7.323 220.01 -7.241 220.153 -7.147 C 219.664 -6.943 219.224 -6.946 218.78 -7.006 C 218.769 -6.498 219.179 -6.197 219.625 -6.321 C 219.763 -6.359 219.896 -6.419 220.034 -6.459 C 220.422 -6.572 220.813 -6.669 221.223 -6.653 C 221.314 -6.648 221.407 -6.661 221.552 -6.668 C 221.485 -6.814 221.437 -6.914 221.393 -7.016 C 221.342 -7.139 221.251 -7.177 221.121 -7.182 C 220.939 -7.19 220.759 -7.218 220.579 -7.244 C 220.546 -7.248 220.518 -7.279 220.475 -7.305 C 220.531 -7.432 220.63 -7.455 220.737 -7.455 C 221.199 -7.458 221.661 -7.458 222.123 -7.456 C 222.306 -7.455 222.422 -7.348 222.526 -7.213 C 222.66 -7.038 222.8 -6.865 222.948 -6.704 C 223.018 -6.627 223.11 -6.565 223.203 -6.517 C 223.371 -6.431 223.473 -6.47 223.553 -6.638 C 223.607 -6.751 223.64 -6.873 223.692 -6.986 C 223.832 -7.29 224.046 -7.485 224.408 -7.46 C 224.522 -7.451 224.639 -7.462 224.753 -7.454 C 225.043 -7.435 225.152 -7.314 225.127 -7.025 C 225.092 -6.643 225.051 -6.26 224.997 -5.88 C 224.953 -5.569 224.973 -5.289 225.249 -5.044 C 225.264 -5.121 225.279 -5.172 225.283 -5.225 C 225.326 -5.78 225.363 -6.336 225.411 -6.892 C 225.446 -7.31 225.605 -7.452 226.02 -7.458 C 226.228 -7.46 226.436 -7.458 226.659 -7.458 C 226.667 -7.353 226.681 -7.287 226.674 -7.224 C 226.63 -6.823 226.585 -6.422 226.532 -6.021 C 226.521 -5.928 226.501 -5.817 226.444 -5.752 C 226.268 -5.553 226.331 -5.364 226.43 -5.167 C 226.46 -5.109 226.491 -5.05 226.513 -5.01 C 226.732 -5.201 226.945 -5.386 227.171 -5.582 C 227.152 -5.634 227.14 -5.703 227.102 -5.752 C 226.899 -6.02 226.899 -6.319 226.933 -6.634 C 226.971 -6.997 227 -7.362 226.901 -7.722 C 226.802 -8.084 226.777 -8.106 226.413 -8.107 C 226.249 -8.107 226.085 -8.103 225.922 -8.107 C 225.65 -8.115 225.434 -8.023 225.295 -7.778 C 225.273 -7.741 225.238 -7.713 225.195 -7.663 C 225.161 -7.713 225.129 -7.74 225.122 -7.772 C 225.073 -8.034 224.893 -8.103 224.657 -8.104 C 224.342 -8.104 224.02 -8.15 223.742 -7.938" style="fill: rgb(128, 128, 128); fill-opacity: 1;"/>
        <path d="M 193.379 -6.951 C 193.389 -7.038 193.392 -7.074 193.397 -7.111 C 193.429 -7.344 193.52 -7.444 193.744 -7.454 C 193.983 -7.464 194.224 -7.462 194.464 -7.452 C 194.679 -7.444 194.853 -7.359 194.946 -7.147 C 194.979 -7.071 195.036 -7.005 195.11 -6.896 C 195.134 -6.979 195.15 -7.019 195.157 -7.061 C 195.207 -7.326 195.3 -7.427 195.571 -7.45 C 195.781 -7.466 195.995 -7.462 196.205 -7.451 C 196.375 -7.442 196.519 -7.366 196.619 -7.22 C 196.66 -7.159 196.707 -7.101 196.79 -7.053 C 196.764 -7.171 196.737 -7.292 196.709 -7.425 C 196.945 -7.473 197.185 -7.523 197.368 -7.405 C 197.542 -7.294 197.653 -7.088 197.829 -6.882 C 197.8 -6.987 197.789 -7.055 197.763 -7.115 C 197.705 -7.251 197.76 -7.338 197.88 -7.396 C 197.939 -7.425 198.002 -7.449 198.067 -7.469 C 198.34 -7.551 198.383 -7.52 198.383 -7.235 C 198.384 -7.086 198.401 -7.053 198.586 -6.841 C 198.714 -7.22 198.601 -7.56 198.443 -7.895 C 198.382 -8.026 198.273 -8.08 198.137 -8.056 C 197.996 -8.03 197.86 -7.981 197.72 -7.953 C 197.641 -7.939 197.53 -7.917 197.477 -7.956 C 197.162 -8.183 196.812 -8.094 196.472 -8.091 C 196.37 -8.09 196.266 -8.087 196.164 -8.088 C 195.904 -8.09 195.641 -8.122 195.387 -8.087 C 195.246 -8.067 195.119 -7.937 195.004 -7.822 C 194.986 -7.824 194.957 -7.817 194.95 -7.826 C 194.785 -8.067 194.55 -8.136 194.272 -8.109 C 194.177 -8.099 194.079 -8.105 193.984 -8.107 C 193.669 -8.118 193.361 -8.112 193.171 -7.782 C 193.105 -7.839 193.054 -7.871 193.021 -7.913 C 192.87 -8.11 192.676 -8.152 192.457 -8.065 C 192.268 -7.989 192.096 -8.01 191.899 -8.052 C 191.692 -8.098 191.464 -8.08 191.25 -8.049 C 191.087 -8.026 190.941 -7.982 190.779 -8.065 C 190.698 -8.106 190.593 -8.105 190.498 -8.105 C 188.304 -8.107 186.111 -8.109 183.917 -8.106 C 183.52 -8.105 183.284 -7.934 183.231 -7.548 C 183.145 -6.911 183.096 -6.268 183.035 -5.628 C 183.014 -5.421 183.138 -5.266 183.264 -5.043 C 183.295 -5.401 183.318 -5.701 183.348 -6 C 183.382 -6.334 183.405 -6.671 183.462 -7.002 C 183.521 -7.338 183.679 -7.456 184.022 -7.456 C 186.215 -7.458 188.409 -7.456 190.603 -7.458 C 190.868 -7.458 191.094 -7.382 191.275 -7.187 C 191.321 -7.138 191.374 -7.096 191.452 -7.064 C 191.411 -7.158 191.37 -7.251 191.321 -7.359 C 191.534 -7.524 191.769 -7.45 191.989 -7.449 C 192.251 -7.447 192.289 -7.144 192.508 -7.026 C 192.484 -7.15 192.466 -7.248 192.445 -7.354 C 192.622 -7.485 192.83 -7.56 193.007 -7.44 C 193.153 -7.34 193.236 -7.148 193.379 -6.951" style="fill: rgb(128, 128, 128); fill-opacity: 1;"/>
        <path d="M 209.684 47.919 C 209.156 47.377 208.632 46.841 208.093 46.289 C 207.94 46.132 207.689 46.135 207.539 46.294 C 207.018 46.85 206.503 47.398 205.982 47.953 C 205.842 48.102 205.845 48.337 205.99 48.481 C 205.991 48.482 205.993 48.483 205.994 48.484 C 206.491 48.978 206.99 49.472 207.489 49.965 C 207.536 50.012 207.583 50.062 207.634 50.107 C 207.838 50.292 207.877 50.282 208.077 50.078 C 208.461 49.686 208.855 49.306 209.24 48.915 C 209.393 48.761 209.542 48.603 209.688 48.449 C 209.83 48.3 209.827 48.066 209.684 47.919" style="fill: rgb(194, 145, 43); fill-opacity: 1;"/>
        <path d="M 195.278 47.461 C 194.691 46.86 194.107 46.261 193.507 45.646 C 193.338 45.473 193.057 45.475 192.89 45.652 C 192.31 46.27 191.738 46.882 191.157 47.5 C 191.001 47.666 191.004 47.926 191.165 48.087 L 191.169 48.09 C 191.724 48.641 192.279 49.19 192.835 49.74 C 192.888 49.792 192.94 49.846 192.996 49.897 C 193.224 50.103 193.267 50.092 193.49 49.865 C 193.916 49.429 194.355 49.004 194.784 48.571 C 194.954 48.398 195.121 48.224 195.283 48.051 C 195.44 47.886 195.438 47.625 195.278 47.461" style="fill: rgb(194, 145, 43); fill-opacity: 1;"/>
        <path d="M 184.223 46.738 C 184.696 46.804 184.999 46.632 185.104 46.185 C 185.711 46.113 185.831 46.015 185.82 45.613 C 185.594 45.554 182.479 45.547 182.2 45.606 C 182.156 45.996 182.316 46.13 182.837 46.175 C 182.973 46.352 183.065 46.55 183.22 46.652 C 183.368 46.748 183.58 46.744 183.787 46.789 L 183.787 52.776 C 183.601 52.745 183.435 52.701 183.268 52.693 C 182.793 52.668 182.364 52.847 181.937 53.017 C 181.67 53.124 181.413 53.255 181.146 53.366 C 180.831 53.497 180.503 53.555 180.135 53.508 C 180.326 53.604 180.562 53.639 180.82 53.579 C 181.109 53.511 181.392 53.417 181.678 53.335 C 182.084 53.222 182.486 53.092 182.896 53.001 C 183.164 52.941 183.433 53 183.666 53.163 C 183.844 53.288 183.851 53.378 183.701 53.53 C 183.673 53.557 183.641 53.579 183.616 53.608 C 183.404 53.846 183.402 54.11 183.609 54.331 C 183.828 54.565 184.116 54.587 184.355 54.387 C 184.575 54.203 184.611 53.913 184.442 53.661 C 184.416 53.622 184.383 53.585 184.349 53.553 C 184.143 53.354 184.151 53.276 184.398 53.129 C 184.72 52.937 185.065 52.96 185.405 53.049 C 185.747 53.139 186.083 53.26 186.42 53.373 C 186.784 53.496 187.149 53.613 187.542 53.597 C 187.633 53.594 187.723 53.573 187.814 53.538 C 187.292 53.568 186.829 53.387 186.383 53.16 C 185.977 52.954 185.55 52.819 185.11 52.717 C 184.822 52.649 184.537 52.686 184.233 52.798 C 184.219 52.717 184.196 52.646 184.196 52.576 C 184.195 50.71 184.195 48.843 184.196 46.976 C 184.196 46.91 184.21 46.845 184.223 46.738" style="fill: rgb(45, 66, 90); fill-opacity: 1;"/>
        <path d="M 156.643 -6.807 C 156.677 -7.035 156.702 -7.251 156.744 -7.464 C 156.764 -7.566 156.806 -7.668 156.857 -7.759 C 157.015 -8.03 157.301 -8.057 157.497 -7.813 C 157.587 -7.703 157.64 -7.564 157.723 -7.447 C 157.871 -7.234 158.022 -7.023 158.186 -6.824 C 158.25 -6.745 158.346 -6.685 158.438 -6.637 C 158.668 -6.517 158.813 -6.578 158.917 -6.814 C 158.979 -6.955 159.044 -7.094 159.12 -7.227 C 159.206 -7.381 159.345 -7.457 159.525 -7.457 C 160.603 -7.456 161.68 -7.457 162.758 -7.455 C 163.01 -7.455 163.205 -7.363 163.308 -7.116 C 163.335 -7.049 163.393 -6.995 163.461 -6.902 C 163.481 -6.984 163.501 -7.025 163.502 -7.069 C 163.504 -7.294 163.642 -7.406 163.839 -7.435 C 164.189 -7.487 164.543 -7.455 164.888 -7.452 C 164.949 -7.247 164.857 -7.107 164.765 -6.995 C 164.606 -6.803 164.628 -6.633 164.758 -6.449 C 164.796 -6.398 164.829 -6.342 164.877 -6.265 C 165.243 -6.643 165.372 -7.071 165.237 -7.549 C 165.046 -8.232 165.104 -8.094 164.535 -8.106 C 164.343 -8.111 164.15 -8.101 163.958 -8.107 C 163.703 -8.117 163.478 -8.073 163.364 -7.819 C 163.327 -7.822 163.298 -7.818 163.292 -7.828 C 163.127 -8.073 162.891 -8.114 162.614 -8.112 C 161.613 -8.101 160.612 -8.101 159.611 -8.111 C 159.214 -8.114 158.95 -7.965 158.81 -7.587 C 158.762 -7.454 158.683 -7.326 158.595 -7.216 C 158.494 -7.092 158.388 -7.084 158.269 -7.192 C 158.156 -7.293 158.058 -7.416 157.977 -7.544 C 157.842 -7.755 157.735 -7.982 157.601 -8.194 C 157.479 -8.386 157.361 -8.614 157.073 -8.561 C 156.799 -8.511 156.732 -8.271 156.68 -8.045 C 156.633 -7.841 156.602 -7.629 156.595 -7.419 C 156.59 -7.219 156.624 -7.019 156.643 -6.807" style="fill: rgb(128, 128, 128); fill-opacity: 1;"/>
        <path d="M 172.872 -7.431 C 172.973 -7.384 173.082 -7.349 173.171 -7.285 C 173.212 -7.256 173.236 -7.169 173.231 -7.113 C 173.22 -7 173.059 -6.859 172.957 -6.85 C 172.842 -6.84 172.575 -6.987 172.552 -7.08 C 172.541 -7.123 172.548 -7.178 172.568 -7.217 C 172.625 -7.336 172.712 -7.418 172.872 -7.431 M 172.141 -7.441 C 172.259 -7.064 172.48 -6.788 172.741 -6.542 C 172.831 -6.456 172.934 -6.38 173.042 -6.319 C 173.295 -6.178 173.425 -6.229 173.477 -6.506 C 173.509 -6.681 173.5 -6.868 173.492 -7.047 C 173.485 -7.167 173.447 -7.287 173.424 -7.404 C 173.672 -7.471 174.313 -7.478 174.61 -7.419 C 174.617 -7.361 174.634 -7.296 174.627 -7.234 C 174.584 -6.832 174.541 -6.431 174.486 -6.031 C 174.471 -5.921 174.435 -5.799 174.37 -5.71 C 174.256 -5.556 174.262 -5.412 174.341 -5.254 C 174.384 -5.169 174.427 -5.083 174.465 -5.007 C 174.688 -5.201 174.905 -5.392 175.131 -5.59 C 175.11 -5.641 175.096 -5.7 175.061 -5.744 C 174.849 -6.018 174.854 -6.327 174.888 -6.65 C 174.926 -7.015 174.952 -7.38 174.85 -7.741 C 174.753 -8.082 174.726 -8.112 174.376 -8.106 C 173.839 -8.097 173.301 -8.071 172.763 -8.068 C 172.388 -8.067 172.014 -8.101 171.64 -8.106 C 171.139 -8.113 170.639 -8.11 170.138 -8.106 C 169.695 -8.104 169.473 -7.932 169.415 -7.489 C 169.337 -6.888 169.291 -6.285 169.228 -5.683 C 169.204 -5.453 169.319 -5.279 169.456 -5.053 C 169.486 -5.354 169.514 -5.607 169.536 -5.86 C 169.561 -6.147 169.58 -6.435 169.605 -6.723 C 169.612 -6.799 169.625 -6.876 169.64 -6.95 C 169.72 -7.338 169.86 -7.455 170.25 -7.457 C 170.798 -7.459 171.347 -7.458 171.895 -7.457 C 171.971 -7.457 172.047 -7.448 172.141 -7.441" style="fill: rgb(128, 128, 128); fill-opacity: 1;"/>
        <path d="M 212.648 -7.287 C 212.637 -7 212.595 -6.905 212.491 -6.868 C 212.384 -6.83 212.311 -6.876 212.229 -6.995 C 212.361 -7.087 212.48 -7.17 212.648 -7.287 M 207.73 -5.091 C 207.768 -5.507 207.802 -5.895 207.839 -6.283 C 207.859 -6.502 207.873 -6.724 207.907 -6.942 C 207.955 -7.263 208.118 -7.466 208.509 -7.462 C 209.422 -7.451 210.337 -7.455 211.251 -7.459 C 211.536 -7.462 211.742 -7.356 211.905 -7.119 C 212.029 -6.938 212.163 -6.751 212.333 -6.618 C 212.797 -6.253 212.932 -6.447 213.012 -6.832 C 213.034 -6.935 213.04 -7.043 213.07 -7.144 C 213.171 -7.498 213.017 -7.754 212.749 -8.001 C 212.475 -7.85 212.2 -7.698 211.894 -7.531 C 211.839 -7.626 211.78 -7.709 211.74 -7.801 C 211.651 -8.012 211.499 -8.109 211.269 -8.107 C 210.288 -8.104 209.306 -8.11 208.326 -8.104 C 208.003 -8.103 207.797 -7.942 207.72 -7.632 C 207.663 -7.4 207.626 -7.161 207.6 -6.923 C 207.554 -6.522 207.523 -6.118 207.486 -5.717 C 207.465 -5.501 207.5 -5.412 207.73 -5.091" style="fill: rgb(128, 128, 128); fill-opacity: 1;"/>
        <path d="M 166.799 -7.415 C 166.76 -7.215 166.655 -7.078 166.519 -7.075 C 166.38 -7.07 166.283 -7.137 166.257 -7.28 C 166.456 -7.455 166.537 -7.475 166.799 -7.415 M 165.369 -8.955 C 165.586 -8.917 165.804 -8.886 166.019 -8.839 C 166.329 -8.772 166.597 -8.627 166.776 -8.354 C 166.811 -8.301 166.828 -8.238 166.871 -8.141 C 166.751 -8.126 166.659 -8.122 166.571 -8.104 C 166.449 -8.079 166.325 -8.06 166.212 -8.012 C 166.079 -7.957 166.003 -7.842 166.005 -7.692 C 166.014 -7.277 166.135 -6.895 166.401 -6.574 C 166.565 -6.374 166.72 -6.363 166.874 -6.575 C 167.019 -6.772 167.12 -7.006 167.216 -7.233 C 167.307 -7.445 167.293 -7.454 167.519 -7.457 C 167.815 -7.461 168.112 -7.457 168.405 -7.457 C 168.474 -7.283 168.408 -7.152 168.325 -7.057 C 168.077 -6.775 168.189 -6.537 168.398 -6.285 C 168.623 -6.456 168.729 -6.7 168.785 -6.961 C 168.86 -7.314 168.756 -7.646 168.625 -7.971 C 168.576 -8.094 168.476 -8.107 168.366 -8.107 C 168.106 -8.107 167.846 -8.108 167.586 -8.108 C 167.258 -8.109 167.261 -8.112 167.146 -8.4 C 167.065 -8.602 166.948 -8.795 166.814 -8.969 C 166.656 -9.173 166.421 -9.244 166.167 -9.193 C 165.896 -9.137 165.628 -9.064 165.361 -8.997 C 165.363 -8.983 165.366 -8.97 165.369 -8.955" style="fill: rgb(128, 128, 128); fill-opacity: 1;"/>
        <path d="M 200.246 -7.38 C 200.393 -7.501 200.524 -7.451 200.7 -7.43 C 200.659 -7.33 200.629 -7.255 200.589 -7.156 C 200.458 -7.242 200.363 -7.304 200.246 -7.38 M 201.467 -5.637 C 201.147 -5.931 201.03 -6.308 200.909 -6.693 C 200.846 -6.895 200.832 -7.072 200.873 -7.278 C 200.915 -7.493 200.909 -7.717 200.917 -7.936 C 200.921 -8.036 200.867 -8.103 200.76 -8.103 C 200.3 -8.104 199.841 -8.104 199.338 -8.104 C 199.398 -7.901 199.445 -7.739 199.491 -7.576 C 199.521 -7.471 199.606 -7.463 199.693 -7.446 C 199.922 -7.399 200.135 -7.309 200.314 -7.155 C 200.476 -7.015 200.49 -6.953 200.354 -6.795 C 200.235 -6.658 200.098 -6.537 199.962 -6.414 C 199.899 -6.356 199.831 -6.306 199.731 -6.372 C 199.696 -6.398 199.618 -6.385 199.571 -6.363 C 199.387 -6.279 199.202 -6.197 199.03 -6.09 C 198.958 -6.046 198.881 -5.948 198.874 -5.871 C 198.857 -5.645 198.874 -5.416 198.879 -5.147 C 199.673 -5.443 200.219 -5.958 200.65 -6.667 C 200.71 -6.57 200.76 -6.523 200.771 -6.468 C 200.831 -6.175 200.877 -5.879 200.776 -5.585 C 200.692 -5.342 200.863 -5.194 200.987 -4.999 C 201.146 -5.211 201.293 -5.405 201.467 -5.637" style="fill: rgb(128, 128, 128); fill-opacity: 1;"/>
        <path d="M 188.414 52.271 C 187.921 51.367 187.441 50.492 186.946 49.583 L 189.89 49.583 C 189.86 49.777 188.612 52.063 188.414 52.271 M 186.675 49.49 C 187.277 50.587 187.846 51.625 188.437 52.7 C 188.495 52.619 188.537 52.574 188.566 52.521 C 189.077 51.598 189.585 50.674 190.094 49.752 C 190.207 49.544 190.196 49.51 190.007 49.344 C 189.17 48.607 187.807 48.587 186.929 49.305 C 186.847 49.371 186.759 49.429 186.675 49.49" style="fill: rgb(45, 66, 90); fill-opacity: 1;"/>
        <path d="M 181.066 49.576 C 180.552 50.509 180.067 51.39 179.575 52.285 C 179.247 51.846 178.146 49.781 178.127 49.576 Z M 177.816 49.549 C 178.39 50.597 178.962 51.637 179.556 52.718 C 179.683 52.497 179.789 52.319 179.889 52.138 C 180.292 51.408 180.689 50.674 181.096 49.945 C 181.329 49.529 181.329 49.455 180.936 49.203 C 180.28 48.78 179.572 48.653 178.818 48.897 C 178.355 49.046 178.113 49.206 177.816 49.549" style="fill: rgb(45, 66, 90); fill-opacity: 1;"/>
        <path d="M 176.963 -6.506 C 176.948 -6.686 176.926 -6.829 176.927 -6.97 C 176.928 -7.236 177.027 -7.357 177.28 -7.424 C 177.353 -7.444 177.43 -7.455 177.507 -7.456 C 178.142 -7.459 178.777 -7.459 179.412 -7.456 C 179.477 -7.456 179.541 -7.439 179.604 -7.43 C 179.659 -7.257 179.583 -7.12 179.492 -7.018 C 179.294 -6.798 179.354 -6.604 179.501 -6.399 C 179.528 -6.362 179.554 -6.325 179.597 -6.266 C 179.906 -6.605 180.056 -6.972 179.984 -7.41 C 179.872 -8.079 179.832 -8.108 179.155 -8.108 C 178.577 -8.108 178 -8.1 177.424 -8.109 C 176.849 -8.118 176.651 -7.727 176.708 -7.262 C 176.739 -7.009 176.804 -6.759 176.963 -6.506" style="fill: rgb(128, 128, 128); fill-opacity: 1;"/>
        <path d="M 203.35 -7.106 C 203.615 -7.34 203.752 -7.337 203.962 -7.099 C 203.907 -6.956 203.801 -6.856 203.647 -6.854 C 203.503 -6.851 203.405 -6.948 203.35 -7.106 M 202.426 -8.939 C 203.045 -8.914 203.557 -8.703 203.901 -8.173 C 204.045 -7.951 204.181 -7.723 204.078 -7.422 C 204.043 -7.492 204.008 -7.563 203.971 -7.631 C 203.876 -7.817 203.716 -7.9 203.524 -7.868 C 203.339 -7.838 203.211 -7.695 203.194 -7.489 C 203.157 -7.053 203.306 -6.675 203.58 -6.347 C 203.757 -6.135 203.893 -6.147 204.071 -6.367 C 204.238 -6.574 204.342 -6.816 204.367 -7.076 C 204.417 -7.604 204.33 -8.111 204.082 -8.583 C 204.016 -8.709 203.931 -8.834 203.828 -8.928 C 203.741 -9.005 203.615 -9.071 203.501 -9.083 C 203.136 -9.119 202.776 -9.067 202.426 -8.939" style="fill: rgb(128, 128, 128); fill-opacity: 1;"/>
        <path d="M 205.85 -6.736 C 205.788 -6.85 205.707 -6.958 205.666 -7.08 C 205.591 -7.293 205.693 -7.451 205.921 -7.452 C 206.109 -7.452 206.299 -7.407 206.486 -7.371 C 206.517 -7.366 206.537 -7.304 206.564 -7.265 C 206.379 -7.019 206.186 -6.812 205.85 -6.736 M 205.959 -8.106 C 205.488 -8.109 205.347 -7.963 205.392 -7.575 C 205.409 -7.425 205.449 -7.269 205.519 -7.137 C 205.666 -6.855 205.84 -6.591 206.002 -6.319 C 206.083 -6.184 206.192 -6.154 206.314 -6.248 C 206.49 -6.38 206.662 -6.518 206.821 -6.667 C 206.941 -6.781 206.969 -6.95 206.924 -7.097 C 206.85 -7.335 206.776 -7.581 206.641 -7.783 C 206.471 -8.043 206.164 -8.078 205.959 -8.106" style="fill: rgb(128, 128, 128); fill-opacity: 1;"/>
        <path d="M 180.718 -8.883 C 181.015 -8.777 181.31 -8.699 181.58 -8.569 C 181.89 -8.421 182.117 -8.169 182.281 -7.865 C 182.348 -7.742 182.351 -7.63 182.255 -7.521 C 182.148 -7.4 182.056 -7.26 181.933 -7.156 C 181.779 -7.025 181.732 -6.887 181.802 -6.699 C 181.839 -6.604 181.863 -6.503 181.905 -6.362 C 182.336 -6.701 182.632 -7.064 182.594 -7.61 C 182.559 -8.105 182.379 -8.537 182.025 -8.898 C 181.869 -9.055 181.693 -9.129 181.48 -9.083 C 181.222 -9.025 180.967 -8.949 180.718 -8.883" style="fill: rgb(128, 128, 128); fill-opacity: 1;"/>
        <path d="M 209.691 41.669 C 209.691 42.103 209.695 42.505 209.69 42.906 C 209.688 43.06 209.806 43.12 209.9 43.193 C 210.102 43.351 210.316 43.497 210.524 43.647 C 210.594 43.486 210.614 41.806 210.544 41.441 C 210.268 41.515 209.993 41.589 209.691 41.669" style="fill: rgb(45, 66, 90); fill-opacity: 1;"/>
        <path d="M 209.694 45.773 C 209.679 46.076 209.658 46.371 209.655 46.665 C 209.655 46.73 209.708 46.807 209.758 46.855 C 209.963 47.056 210.176 47.249 210.411 47.465 C 210.436 47.403 210.466 47.36 210.472 47.314 C 210.504 47.048 210.515 46.778 210.563 46.513 C 210.614 46.231 210.501 46.06 210.259 45.94 C 210.09 45.856 209.926 45.757 209.694 45.773" style="fill: rgb(45, 66, 90); fill-opacity: 1;"/>
        <path d="M 202.097 -7.958 C 202.043 -7.551 201.988 -7.143 201.935 -6.737 C 201.907 -6.527 201.905 -6.311 201.853 -6.109 C 201.757 -5.73 201.905 -5.415 202.112 -5.092 C 202.136 -5.254 202.167 -5.416 202.185 -5.579 C 202.242 -6.055 202.301 -6.532 202.344 -7.009 C 202.373 -7.339 202.316 -7.657 202.097 -7.958" style="fill: rgb(128, 128, 128); fill-opacity: 1;"/>
        <path d="M 180.636 -5.094 C 180.691 -5.537 180.75 -5.979 180.802 -6.421 C 180.823 -6.593 180.831 -6.765 180.848 -6.937 C 180.884 -7.297 180.838 -7.641 180.623 -8.014 C 180.58 -7.727 180.54 -7.496 180.509 -7.265 C 180.45 -6.827 180.393 -6.389 180.338 -5.951 C 180.298 -5.631 180.442 -5.363 180.569 -5.092 C 180.591 -5.093 180.613 -5.093 180.636 -5.094" style="fill: rgb(128, 128, 128); fill-opacity: 1;"/>
        <path d="M 175.73 -7.984 C 175.66 -7.455 175.598 -6.982 175.535 -6.509 C 175.521 -6.404 175.507 -6.299 175.489 -6.195 C 175.416 -5.803 175.492 -5.441 175.739 -5.101 C 175.762 -5.237 175.793 -5.374 175.806 -5.513 C 175.861 -6.104 175.922 -6.696 175.955 -7.29 C 175.973 -7.583 175.909 -7.717 175.73 -7.984" style="fill: rgb(128, 128, 128); fill-opacity: 1;"/>
        <path d="M 156.709 -5.359 C 156.81 -5.252 156.911 -5.145 157.006 -5.045 C 157.523 -5.287 157.523 -5.287 157.91 -5.036 C 158.049 -5.112 158.196 -5.194 158.338 -5.273 C 158.334 -5.308 158.337 -5.333 158.327 -5.343 C 158.015 -5.707 158.083 -5.705 157.657 -5.475 C 157.614 -5.452 157.572 -5.43 157.528 -5.411 C 157.512 -5.403 157.491 -5.405 157.473 -5.403 C 157.073 -5.669 157.028 -5.667 156.709 -5.359" style="fill: rgb(128, 128, 128); fill-opacity: 1;"/>
        <path d="M 178.669 -5.046 C 178.8 -5.121 178.939 -5.2 179.075 -5.277 C 179.068 -5.309 179.072 -5.333 179.062 -5.345 C 178.747 -5.696 178.825 -5.71 178.388 -5.475 C 178.347 -5.453 178.304 -5.43 178.261 -5.409 C 178.245 -5.403 178.224 -5.404 178.205 -5.401 C 177.8 -5.668 177.8 -5.668 177.434 -5.378 C 177.479 -5.322 177.521 -5.263 177.57 -5.211 C 177.622 -5.156 177.68 -5.107 177.745 -5.047 C 177.901 -5.119 178.051 -5.242 178.207 -5.247 C 178.347 -5.253 178.492 -5.129 178.669 -5.046" style="fill: rgb(128, 128, 128); fill-opacity: 1;"/>
        <path d="M 162.983 -9.026 C 162.599 -9.314 162.569 -9.313 162.207 -9.012 C 162.307 -8.904 162.406 -8.795 162.508 -8.683 C 162.673 -8.763 162.817 -8.884 162.963 -8.887 C 163.104 -8.891 163.248 -8.771 163.433 -8.689 C 163.543 -8.75 163.693 -8.83 163.879 -8.931 C 163.779 -9.043 163.701 -9.148 163.602 -9.226 C 163.555 -9.262 163.455 -9.263 163.396 -9.24 C 163.256 -9.183 163.126 -9.101 162.983 -9.026" style="fill: rgb(128, 128, 128); fill-opacity: 1;"/>
        <path d="M 171.809 -5.387 C 171.943 -5.247 172.04 -5.146 172.14 -5.041 C 172.299 -5.119 172.438 -5.208 172.589 -5.256 C 172.779 -5.316 172.863 -5.108 173.037 -5.041 C 173.095 -5.07 173.17 -5.107 173.243 -5.146 C 173.318 -5.186 173.393 -5.228 173.484 -5.281 C 173.46 -5.325 173.443 -5.368 173.416 -5.401 C 173.176 -5.686 173.171 -5.694 172.852 -5.507 C 172.683 -5.408 172.547 -5.364 172.407 -5.541 C 172.339 -5.624 172.246 -5.639 172.148 -5.581 C 172.05 -5.525 171.953 -5.47 171.809 -5.387" style="fill: rgb(128, 128, 128); fill-opacity: 1;"/>
        <path d="M 205.634 -5.049 C 205.802 -5.127 205.948 -5.247 206.095 -5.248 C 206.238 -5.248 206.382 -5.126 206.548 -5.047 C 206.668 -5.114 206.808 -5.192 206.98 -5.288 C 206.909 -5.374 206.853 -5.446 206.794 -5.516 C 206.691 -5.641 206.572 -5.648 206.438 -5.567 C 206.331 -5.505 206.221 -5.449 206.121 -5.394 C 205.977 -5.472 205.848 -5.593 205.716 -5.599 C 205.592 -5.602 205.465 -5.485 205.322 -5.412 C 205.386 -5.243 205.513 -5.161 205.634 -5.049" style="fill: rgb(128, 128, 128); fill-opacity: 1;"/>
        <path d="M 194.889 -5.282 C 195.051 -5.372 195.19 -5.452 195.362 -5.548 C 195.271 -5.65 195.196 -5.733 195.121 -5.816 C 195.055 -5.891 194.975 -5.898 194.888 -5.855 C 194.853 -5.839 194.813 -5.83 194.785 -5.807 C 194.562 -5.636 194.354 -5.599 194.177 -5.911 C 194.003 -5.822 193.85 -5.741 193.64 -5.633 C 193.801 -5.513 193.915 -5.429 194.062 -5.319 C 194.1 -5.341 194.194 -5.385 194.278 -5.444 C 194.434 -5.55 194.576 -5.554 194.715 -5.414 C 194.761 -5.368 194.819 -5.333 194.889 -5.282" style="fill: rgb(128, 128, 128); fill-opacity: 1;"/>
        <path d="M 191.538 -5.809 C 191.653 -5.686 191.729 -5.604 191.819 -5.508 C 192.077 -5.739 192.306 -5.88 192.537 -5.527 C 192.664 -5.625 192.774 -5.708 192.909 -5.811 C 192.82 -5.909 192.753 -5.983 192.666 -6.078 C 192.52 -5.993 192.384 -5.914 192.234 -5.826 C 192.129 -5.908 192.026 -5.988 191.9 -6.088 C 191.796 -6.008 191.695 -5.929 191.538 -5.809" style="fill: rgb(128, 128, 128); fill-opacity: 1;"/>
        <path d="M 164.044 -5.572 C 164.168 -5.464 164.281 -5.366 164.414 -5.253 C 164.546 -5.358 164.668 -5.457 164.788 -5.555 C 164.53 -6.012 164.323 -5.986 164.044 -5.572" style="fill: rgb(128, 128, 128); fill-opacity: 1;"/>
        <path d="M 168.331 -5.57 C 167.987 -6.001 167.867 -6.001 167.572 -5.577 C 167.685 -5.475 167.801 -5.369 167.934 -5.249 C 168.071 -5.36 168.194 -5.459 168.331 -5.57" style="fill: rgb(128, 128, 128); fill-opacity: 1;"/>
        <path d="M 188.443 53.455 C 188.594 53.455 188.724 53.331 188.722 53.185 C 188.72 53.056 188.596 52.929 188.465 52.922 C 188.315 52.914 188.181 53.032 188.177 53.18 C 188.171 53.336 188.287 53.455 188.443 53.455" style="fill: rgb(45, 66, 90); fill-opacity: 1;"/>
        <path d="M 179.831 53.2 C 179.83 53.049 179.71 52.926 179.561 52.923 C 179.42 52.919 179.28 53.058 179.286 53.195 C 179.292 53.332 179.439 53.463 179.578 53.456 C 179.725 53.449 179.832 53.341 179.831 53.2" style="fill: rgb(45, 66, 90); fill-opacity: 1;"/>
        <path d="M 192.48 -5.283 C 192.44 -5.339 192.417 -5.38 192.384 -5.413 C 192.338 -5.459 192.287 -5.498 192.216 -5.559 C 192.121 -5.479 192.032 -5.402 191.922 -5.31 C 192.02 -5.208 192.097 -5.128 192.193 -5.028 C 192.294 -5.117 192.383 -5.197 192.48 -5.283" style="fill: rgb(128, 128, 128); fill-opacity: 1;"/>
        <path d="M 184.565 53.976 C 184.565 53.65 184.301 53.385 183.974 53.385 C 183.647 53.385 183.383 53.65 183.383 53.976 C 183.383 54.303 183.647 54.568 183.974 54.568 C 184.301 54.568 184.565 54.303 184.565 53.976" style="fill: rgb(194, 145, 43); fill-opacity: 1;"/>
      </g>
    </g>
  </g>
</svg>